<?xml version="1.0" standalone="no"?>
<!DOCTYPE svg PUBLIC "-//W3C//DTD SVG 20010904//EN"
 "http://www.w3.org/TR/2001/REC-SVG-20010904/DTD/svg10.dtd">
<svg version="1.0" xmlns="http://www.w3.org/2000/svg"
 width="576.000000pt" height="415.000000pt" viewBox="0 0 576.000000 415.000000"
 preserveAspectRatio="xMidYMid meet">
<metadata>
Image by Paul Sherman
Published by wpclipart.com
License is Public Domain
Created by potrace 1.12, written by Peter Selinger 2001-2015
</metadata>
<g transform="translate(0.000000,415.000000) scale(0.100000,-0.100000)"
fill="#000000" stroke="none">
<path d="M2278 4061 c-1 -14 -1 -42 -1 -63 1 -33 -2 -37 -31 -41 -17 -3 -65
-6 -106 -7 -41 0 -79 -5 -84 -10 -6 -6 -21 -10 -35 -10 -23 0 -150 -55 -161
-70 -3 -4 -23 -18 -45 -32 -58 -36 -165 -126 -209 -176 -52 -58 -151 -102
-326 -146 -159 -39 -212 -68 -313 -165 -62 -59 -184 -216 -205 -264 -6 -15
-19 -30 -28 -34 -8 -3 -20 -15 -25 -27 -5 -11 -18 -34 -28 -51 -11 -16 -20
-40 -20 -51 -1 -12 -8 -28 -17 -35 -31 -25 -109 -222 -119 -301 -4 -23 -9 -54
-11 -67 l-5 -25 -27 32 c-15 18 -33 32 -39 32 -6 0 -16 7 -23 15 -15 18 -94
18 -136 -1 -35 -15 -69 -56 -105 -124 -21 -41 -23 -56 -21 -165 2 -116 7 -151
39 -281 23 -94 53 -151 135 -249 114 -136 120 -155 54 -155 -26 0 -48 -6 -56
-15 -7 -8 -18 -15 -24 -15 -20 0 -87 -70 -80 -82 5 -8 2 -9 -10 -5 -10 4 -15
3 -11 -3 3 -5 -4 -14 -15 -20 -12 -6 -25 -21 -30 -33 -6 -12 -14 -29 -18 -37
-25 -43 -33 -65 -52 -140 -22 -93 -25 -114 -10 -105 6 4 10 -23 11 -72 1 -56
3 -68 8 -43 l7 35 8 -35 c5 -19 8 -38 8 -42 -1 -4 7 -26 18 -50 16 -36 19 -38
15 -13 -3 17 -2 23 1 15 4 -8 17 -27 30 -42 12 -15 28 -44 35 -65 10 -33 13
-35 20 -18 4 11 8 15 8 8 1 -12 71 -88 71 -77 0 3 -5 15 -11 26 -11 21 -11 21
20 -1 17 -12 33 -26 36 -31 9 -14 65 -39 65 -29 0 14 20 11 37 -7 13 -12 18
-13 24 -3 6 10 12 9 27 -5 17 -15 23 -15 40 -5 18 11 24 10 42 -6 17 -16 23
-17 30 -6 6 10 12 6 24 -18 9 -17 23 -31 31 -31 20 0 19 -24 0 -40 -9 -7 -13
-20 -10 -28 3 -8 -6 -24 -22 -38 -22 -19 -24 -24 -10 -24 16 0 16 -3 -3 -40
-19 -38 -17 -46 12 -41 4 0 4 -15 1 -34 -4 -23 -2 -35 6 -35 6 0 11 -14 11
-31 0 -26 2 -29 14 -20 11 10 20 10 36 1 18 -10 24 -8 36 7 10 12 17 14 20 7
5 -13 58 8 70 27 4 7 10 6 18 0 10 -8 16 -4 25 16 9 19 15 23 20 14 6 -8 12
-3 21 18 7 17 17 28 22 25 5 -3 12 4 15 17 6 22 7 22 14 3 6 -15 8 -12 8 14 1
19 5 31 11 27 6 -3 10 4 10 18 0 14 7 30 15 37 10 8 13 21 8 37 -7 30 -5 29
67 -18 145 -95 170 -108 255 -132 50 -13 116 -34 149 -46 32 -12 88 -25 125
-28 36 -3 91 -13 121 -21 33 -10 97 -17 160 -18 58 0 126 -5 152 -11 56 -12
142 -7 225 13 44 11 71 13 96 6 19 -5 45 -8 58 -7 13 2 83 6 154 10 160 8 292
23 315 35 10 5 48 11 86 13 110 7 353 113 431 188 17 17 35 29 40 26 5 -3 22
-26 38 -51 33 -52 150 -150 167 -140 7 4 8 3 4 -4 -4 -7 11 -22 36 -38 24 -15
62 -44 85 -64 58 -51 407 -197 528 -221 27 -6 121 -14 209 -18 123 -6 169 -5
203 5 25 8 49 11 54 8 5 -3 59 2 120 11 111 16 235 54 254 78 6 7 26 23 46 35
20 12 54 42 75 66 59 66 127 147 143 170 18 24 20 119 4 161 -6 17 -17 48 -23
70 -25 80 -62 146 -113 195 -29 28 -89 86 -134 130 -46 44 -87 80 -92 80 -4 0
-24 14 -42 31 -19 17 -53 39 -75 49 -23 10 -45 23 -48 29 -4 5 -34 22 -66 37
-33 15 -60 29 -60 32 0 4 17 24 38 46 l37 40 -43 -33 c-37 -29 -70 -69 -60
-75 2 -1 26 -8 53 -14 28 -7 66 -25 85 -41 19 -15 54 -38 78 -51 39 -22 47
-32 43 -53 -1 -5 3 -6 8 -2 17 10 89 -43 128 -95 20 -27 49 -54 64 -61 66 -27
158 -158 175 -250 l7 -34 -24 20 c-13 11 -9 3 9 -16 27 -30 34 -46 38 -92 6
-74 -15 -123 -71 -170 -43 -36 -62 -47 -50 -28 3 6 -3 15 -14 20 -20 11 -24
-1 -8 -26 4 -7 -2 -19 -15 -29 -15 -11 -17 -14 -5 -11 12 5 17 1 17 -12 0 -23
-35 -55 -50 -46 -6 4 -35 -16 -66 -45 -30 -28 -58 -48 -64 -45 -5 3 -22 -1
-37 -8 -68 -35 -270 -59 -473 -58 -63 1 -133 1 -155 1 -88 1 -243 48 -402 122
-46 21 -85 38 -89 38 -3 0 -19 10 -36 21 -23 17 -27 24 -16 31 9 6 5 7 -11 3
-15 -5 -21 -3 -17 3 3 6 1 14 -5 18 -8 5 -9 3 -4 -6 5 -8 3 -11 -6 -8 -8 3
-13 10 -12 15 1 6 -17 20 -40 33 -108 60 -237 163 -237 189 0 4 18 16 39 26
26 11 38 22 34 31 -4 12 -12 9 -39 -11 -48 -37 -73 -34 -34 5 19 19 18 56 -1
44 -5 -3 -7 -10 -3 -15 3 -6 -2 -16 -12 -23 -16 -12 -20 -9 -41 28 -34 60 -40
75 -52 142 -15 81 -14 125 4 167 8 20 12 42 9 51 -9 23 24 74 64 99 20 13 51
32 67 43 17 10 38 17 47 16 12 -2 16 2 12 12 -7 17 24 36 60 36 14 0 26 4 26
10 0 5 12 16 28 24 26 15 26 15 4 16 -12 0 -41 -9 -63 -21 -23 -11 -43 -18
-46 -16 -2 3 -13 -3 -24 -14 -11 -11 -23 -17 -28 -15 -4 3 -13 -6 -19 -19 -7
-16 -17 -23 -27 -19 -8 3 -15 1 -15 -4 0 -6 -20 -25 -44 -41 -25 -18 -48 -44
-56 -63 -7 -18 -22 -58 -33 -88 -12 -30 -27 -64 -34 -76 -7 -11 -10 -23 -7
-26 3 -4 1 -16 -6 -27 -6 -12 -8 -21 -6 -21 3 0 13 14 21 31 9 17 19 28 22 26
7 -7 -46 -104 -66 -120 -12 -10 -14 -9 -7 8 6 17 5 18 -6 7 -11 -11 -10 -16 4
-26 16 -12 16 -14 1 -37 -40 -58 -96 -119 -128 -138 -31 -18 -27 -10 40 73 51
64 73 99 69 110 -5 13 -11 8 -26 -21 -11 -21 -26 -44 -33 -52 -12 -12 -13 -11
-8 10 4 13 15 38 25 54 10 17 18 37 18 45 0 8 -14 -10 -30 -40 -17 -30 -42
-68 -56 -85 -22 -26 -24 -27 -19 -7 4 15 1 24 -9 28 -12 5 -13 10 -5 25 5 10
7 19 4 19 -2 0 -21 -33 -40 -73 -19 -39 -53 -92 -75 -116 -39 -42 -58 -48 -22
-7 16 20 16 20 -2 6 -10 -8 -29 -32 -42 -52 -34 -53 -116 -93 -128 -63 -6 17
12 61 21 52 2 -3 0 -14 -6 -25 -9 -17 -8 -19 8 -15 11 3 30 16 43 30 l23 26
-27 -18 c-38 -24 -35 -5 7 45 19 23 35 47 35 53 0 8 4 7 12 -1 9 -9 9 -18 0
-39 -12 -26 -11 -27 3 -8 9 11 20 20 26 20 12 0 29 27 23 37 -3 4 -11 5 -19 1
-17 -6 -19 1 -6 26 7 13 6 18 -4 18 -7 0 -11 -7 -7 -15 4 -11 1 -13 -8 -7 -8
5 -11 4 -7 -2 7 -10 -21 -28 -30 -19 -2 2 3 21 13 42 9 22 18 46 20 54 13 64
12 68 -6 20 -11 -30 -31 -77 -45 -103 -14 -27 -25 -53 -25 -58 0 -16 -72 -109
-93 -120 -17 -10 -19 -9 -13 7 6 16 4 15 -14 -3 -11 -13 -30 -23 -41 -23 -19
0 -19 2 6 42 14 24 31 53 37 66 6 12 15 22 20 22 5 0 6 -6 2 -12 -4 -7 9 4 29
25 42 44 42 44 22 44 -8 0 -15 -3 -15 -7 0 -3 -7 -15 -15 -26 -13 -17 -14 -15
-10 31 l5 50 -19 -42 c-11 -24 -25 -43 -31 -43 -6 0 -8 -5 -4 -12 4 -7 3 -8
-5 -4 -8 5 -24 -6 -44 -30 -18 -20 -44 -50 -58 -65 -15 -16 -26 -29 -25 -31 0
-2 -5 4 -12 12 -7 8 -12 27 -9 42 5 35 1 35 -18 -1 -11 -21 -11 -31 -3 -33 17
-6 1 -38 -19 -38 -13 0 -14 3 -5 12 14 14 16 32 3 23 -6 -3 -5 10 1 31 5 20 7
38 4 41 -8 8 -36 -66 -30 -81 3 -8 0 -17 -7 -22 -9 -5 -11 -2 -6 8 9 26 -4 29
-25 5 -18 -20 -19 -20 -13 -3 5 19 5 19 -12 4 -25 -23 -72 -40 -93 -33 -16 5
-17 11 -8 41 5 19 7 55 5 79 -3 25 -1 62 3 82 12 55 21 184 11 153 -8 -23 -9
-22 -13 15 -3 30 -5 22 -6 -28 -2 -79 -18 -148 -44 -195 -10 -19 -21 -54 -25
-78 -7 -57 -22 -67 -19 -13 1 22 -1 42 -6 45 -4 3 -8 -5 -8 -18 -1 -13 -7 -34
-15 -48 -13 -22 -14 -23 -15 -5 -1 18 -2 17 -11 -4 -7 -19 -15 -22 -39 -19
-16 3 -31 0 -33 -5 -4 -12 -47 9 -47 23 0 13 17 13 25 0 13 -22 20 -8 19 37
-3 74 -3 75 -15 67 -7 -4 -9 -21 -5 -45 7 -43 2 -47 -27 -22 -19 17 -20 17
-15 -3 5 -19 2 -21 -21 -14 -22 6 -26 12 -23 39 1 18 -2 30 -7 27 -5 -4 -16 1
-25 9 -14 14 -15 11 -12 -32 2 -40 6 -50 28 -60 14 -7 31 -20 38 -28 10 -13 9
-15 -8 -15 -20 0 -92 71 -92 92 0 6 -3 8 -6 5 -4 -4 1 -18 10 -33 21 -31 11
-48 -11 -19 -43 59 -64 107 -75 181 -6 43 -18 88 -25 99 -17 25 -16 13 2 -55
18 -68 18 -70 0 -70 -19 0 -19 1 5 -61 24 -60 21 -71 -9 -33 -17 22 -21 23
-21 9 0 -10 8 -28 17 -39 10 -12 -1 -3 -24 20 -22 22 -44 50 -47 62 -8 24 -22
29 -28 10 -3 -7 -7 -5 -11 6 -4 10 -3 15 3 11 6 -3 10 -3 10 2 -1 12 -29 60
-30 49 0 -5 -6 -3 -14 3 -7 6 2 -20 20 -59 19 -38 36 -70 39 -70 2 0 1 8 -2
17 -6 16 -5 16 10 4 19 -15 24 -46 6 -35 -8 4 -9 -1 -4 -17 4 -13 14 -28 21
-32 8 -4 14 -15 14 -24 0 -15 -2 -14 -13 2 -8 10 -19 15 -26 11 -7 -5 -21 0
-32 10 -18 16 -19 16 -13 1 16 -43 -45 5 -89 70 -16 23 -39 74 -52 115 -13 40
-24 69 -25 63 0 -5 -7 -1 -15 9 -8 11 -15 15 -15 9 0 -20 22 -73 31 -73 5 0 9
-6 9 -14 0 -7 11 -34 25 -60 28 -53 33 -75 12 -57 -8 6 -26 36 -42 66 -15 31
-30 54 -32 51 -2 -2 5 -22 16 -45 24 -46 25 -51 10 -51 -5 0 -8 4 -5 9 3 5 -1
11 -9 15 -24 9 -28 -14 -6 -38 22 -23 27 -36 14 -36 -11 0 -44 60 -39 69 3 4
-6 20 -19 37 -27 32 -34 15 -10 -26 16 -29 18 -40 7 -40 -11 0 -43 56 -35 64
3 3 -1 6 -10 6 -22 0 -21 -11 3 -54 38 -64 2 -48 -46 21 -47 67 -75 103 -59
74 6 -10 4 -12 -4 -7 -6 4 -11 13 -10 19 3 25 -1 37 -12 35 -6 -2 -17 13 -25
32 l-13 35 6 -45 c3 -25 14 -54 24 -66 23 -24 24 -34 5 -34 -7 0 -21 10 -30
22 -14 20 -15 21 -9 3 3 -11 3 -17 -2 -13 -4 4 -8 15 -9 25 -3 30 -49 113 -63
113 -10 0 -6 -13 12 -43 25 -44 34 -84 15 -72 -6 4 -22 29 -35 56 -28 54 -36
61 -28 27 4 -21 3 -21 -7 -5 -6 10 -10 24 -7 30 2 7 -6 35 -18 62 l-23 50 -2
-45 -2 -45 -13 30 c-8 17 -19 62 -25 100 -7 39 -17 77 -22 85 -6 10 -7 6 -2
-15 4 -16 8 -48 9 -70 1 -23 12 -67 24 -98 26 -72 27 -91 1 -52 -23 34 -60
109 -60 123 0 5 -7 9 -15 9 -16 0 7 -46 67 -134 15 -23 28 -48 28 -55 0 -8 5
-19 12 -26 7 -7 9 -12 5 -12 -5 0 -19 12 -33 28 -15 16 -22 20 -18 9 10 -28
-17 -11 -51 33 -16 22 -37 42 -45 45 -8 3 -26 24 -39 47 -72 128 -86 157 -116
227 -17 43 -40 113 -50 157 -29 131 -36 156 -42 151 -5 -6 15 -107 44 -222 8
-33 26 -84 39 -113 13 -29 24 -57 24 -62 0 -5 8 -13 17 -19 10 -5 14 -13 10
-18 -5 -4 -12 -1 -17 7 -5 8 -16 24 -24 35 l-16 20 7 -20 c9 -28 -1 -17 -32
35 -15 25 -24 36 -21 25 10 -34 -48 40 -78 99 -15 29 -28 64 -29 77 -1 13 -9
35 -18 49 -9 14 -24 61 -33 105 -10 44 -24 104 -33 134 -8 29 -18 106 -23 170
-5 64 -12 140 -15 169 -7 48 -6 52 11 46 13 -4 15 -3 6 3 -15 12 -21 89 -6 86
8 -1 8 14 2 51 -7 46 -3 74 28 192 37 146 90 267 166 384 52 80 261 292 305
309 18 7 31 17 28 21 -7 12 96 91 161 124 64 32 202 49 228 27 10 -8 21 -9 33
-3 10 5 37 13 61 17 35 6 42 4 42 -9 0 -20 14 -21 29 -2 9 11 35 13 118 9 107
-4 107 -4 147 -41 23 -20 40 -43 40 -50 -2 -11 1 -10 15 1 9 8 23 18 31 22 12
7 13 6 3 -6 -10 -13 -9 -23 7 -54 11 -22 20 -51 20 -65 0 -24 20 -67 20 -44 0
17 116 140 153 162 18 11 43 23 57 26 15 4 9 -2 -15 -15 -66 -35 -215 -189
-215 -222 0 -6 6 -3 13 7 20 27 25 4 17 -67 -3 -32 -3 -60 1 -63 4 -2 11 -26
14 -52 4 -26 13 -61 21 -79 8 -17 14 -38 14 -48 0 -9 5 -13 10 -10 6 4 23 -7
39 -24 21 -22 31 -27 40 -18 6 6 11 17 11 25 0 7 5 10 10 7 6 -3 10 -14 10
-24 0 -21 36 -56 68 -66 12 -3 22 -11 22 -17 0 -7 5 -6 15 2 8 6 31 12 52 12
47 0 80 22 88 58 3 16 14 30 25 33 11 3 24 18 30 34 5 15 15 36 21 46 7 13 7
41 -1 95 -12 74 -23 107 -67 183 -21 36 -25 85 -7 82 6 -1 31 19 55 45 24 25
34 38 22 28 -32 -27 -29 -15 4 15 14 13 23 19 20 13 -14 -25 110 -59 213 -57
109 1 143 19 117 61 -5 6 -4 12 1 12 11 0 34 -25 28 -31 -2 -2 6 -4 19 -4 18
0 21 3 13 13 -7 8 -7 12 0 12 12 0 34 -25 27 -32 -3 -2 14 -22 37 -44 24 -21
35 -30 25 -18 -9 11 -17 25 -17 31 0 6 -7 16 -15 23 -18 15 -20 40 -2 40 7 0
29 -11 50 -25 29 -20 37 -22 37 -10 0 8 -5 15 -12 15 -6 0 -9 2 -6 6 3 3 33
-6 67 -20 34 -14 59 -21 56 -15 -8 12 8 12 21 -1 6 -6 43 -19 83 -30 76 -21
119 -40 143 -62 13 -13 109 -92 187 -156 23 -18 41 -37 41 -42 0 -4 18 -28 41
-52 47 -51 95 -145 109 -217 5 -28 15 -75 21 -103 45 -213 52 -270 50 -413 -3
-210 -19 -359 -52 -462 -17 -52 -37 -97 -47 -102 -13 -8 -5 -10 33 -11 28 0
57 5 65 11 12 8 9 10 -12 6 -33 -5 -33 -7 -9 102 40 179 62 348 55 430 -6 76
-6 79 17 92 13 7 28 12 33 11 4 -2 14 2 22 9 7 6 18 8 24 4 5 -3 10 -2 10 3 0
5 10 14 23 21 28 15 62 74 54 95 -4 10 -1 13 8 10 9 -4 17 6 23 33 21 78 32
141 42 238 7 55 16 108 21 118 11 21 3 58 -27 118 -32 64 -68 104 -128 144
-28 18 -64 46 -81 62 -16 15 -43 34 -58 42 -15 8 -56 38 -90 66 -35 29 -73 58
-85 64 -13 7 -20 16 -17 20 2 5 -15 16 -39 25 -24 9 -56 30 -72 46 -16 16 -39
30 -51 30 -13 0 -23 3 -23 8 0 11 -51 32 -76 32 -26 0 -41 16 -22 23 7 2 -2 7
-20 11 -18 4 -30 11 -27 16 3 5 1 11 -5 15 -5 3 -14 24 -20 45 -6 24 -17 40
-25 40 -20 0 -19 13 6 44 11 14 18 30 15 35 -3 5 1 14 10 21 12 11 14 29 8
109 -4 53 -12 102 -18 110 -16 20 -14 41 7 84 11 24 16 51 13 77 -3 26 0 42
10 50 7 7 12 16 9 20 -3 5 9 50 26 101 23 70 28 94 18 99 -13 9 -36 3 -56 -12
-7 -6 -16 -7 -21 -4 -22 13 -236 -85 -252 -115 -6 -10 -19 -20 -29 -24 -11 -3
-22 -14 -24 -23 -4 -13 -5 -11 -6 5 -1 14 6 24 19 28 28 9 25 25 -5 25 -14 0
-45 10 -68 22 -23 12 -45 23 -49 24 -5 1 -11 3 -15 4 -5 1 -11 2 -15 1 -4 0
-20 4 -35 10 -35 14 -50 16 -142 24 -41 3 -88 12 -105 20 -42 19 -98 33 -113
28 -7 -3 15 -27 48 -55 33 -27 58 -53 55 -56 -4 -3 -21 8 -39 25 -17 16 -48
40 -67 53 -19 13 -70 53 -113 89 -90 75 -136 89 -139 42z m105 -84 c-3 -6 -16
10 -29 34 -32 62 -29 72 5 20 17 -25 27 -49 24 -54z m105 -145 c34 -52 62 -97
62 -98 0 -2 -6 -1 -13 2 -8 3 -24 22 -35 43 -12 21 -29 45 -39 52 -9 8 -27 38
-40 67 -25 56 -29 79 -10 48 7 -10 40 -62 75 -114z m-197 -12 c1 -36 7 -79 15
-97 22 -54 1 -139 -43 -174 -16 -12 -17 -12 -6 2 7 8 14 24 16 35 1 10 5 24 9
29 17 27 19 84 4 120 -16 38 -21 110 -10 140 10 25 13 14 15 -55z m999 29
c-12 -16 -24 -28 -27 -25 -7 6 27 56 39 56 5 0 0 -14 -12 -31z m-200 -115 c0
-2 -4 -4 -10 -4 -5 0 -10 5 -10 11 0 5 5 7 10 4 6 -3 10 -8 10 -11z m-1350
-183 c0 -4 -13 -22 -30 -39 -16 -18 -30 -37 -30 -42 0 -6 -7 -13 -15 -16 -8
-4 -15 -11 -15 -16 0 -6 -11 -23 -24 -38 -32 -39 -41 -106 -22 -171 9 -29 14
-55 11 -57 -2 -3 -7 4 -10 14 -4 10 -11 27 -16 36 -12 24 -10 106 4 146 12 30
47 81 111 158 29 35 36 40 36 25z m510 -46 c0 -8 -4 -15 -10 -15 -5 0 -10 7
-10 15 0 8 5 15 10 15 6 0 10 -7 10 -15z m-14 -62 c-10 -10 -19 5 -10 18 6 11
8 11 12 0 2 -7 1 -15 -2 -18z m-15 -106 c-8 -8 -11 -2 -11 19 0 40 14 54 18
19 2 -15 -1 -32 -7 -38z m291 23 c-3 -30 16 -80 32 -80 14 0 57 29 73 50 10
13 12 13 18 -5 4 -11 13 -34 21 -52 16 -36 18 -83 4 -83 -5 0 -10 11 -10 24 0
50 -8 56 -68 50 -51 -5 -59 -4 -78 17 -12 13 -25 43 -29 67 -7 42 -6 44 16 40
19 -2 23 -8 21 -28z m93 -10 c-3 -5 -10 -10 -16 -10 -5 0 -9 5 -9 10 0 6 7 10
16 10 8 0 12 -4 9 -10z m475 -72 c-23 -77 -105 -106 -154 -53 -17 18 -25 22
-34 13 -9 -9 -12 -9 -12 0 0 6 12 19 26 29 24 15 27 15 35 0 33 -59 68 -59 89
1 11 32 19 42 36 42 21 0 22 -3 14 -32z m-65 12 c-3 -5 -8 -10 -11 -10 -2 0
-4 5 -4 10 0 6 5 10 11 10 5 0 7 -4 4 -10z m-789 -27 c-3 -4 -6 2 -5 13 0 11
3 14 6 6 3 -7 2 -16 -1 -19z m24 -113 c6 -11 8 -20 6 -20 -3 0 -10 9 -16 20
-6 11 -8 20 -6 20 3 0 10 -9 16 -20z m-575 -49 c-11 -10 -33 11 -38 34 l-5 27
23 -28 c13 -16 22 -31 20 -33z m1636 16 c-6 -18 -18 -34 -26 -34 -8 0 -15 4
-15 9 0 4 4 8 9 8 5 0 14 14 21 30 17 41 25 31 11 -13z m-1013 -19 c7 -7 12
-19 12 -27 0 -11 -4 -10 -20 4 -21 19 -26 35 -12 35 4 0 13 -5 20 -12z m505
-32 l32 -14 -33 -7 c-18 -4 -35 -12 -38 -16 -9 -16 -24 -9 -17 7 5 14 2 16
-19 11 -18 -5 -28 -2 -32 8 -3 8 -12 15 -21 15 -8 0 -15 5 -15 11 0 15 98 4
143 -15z m452 -35 c-7 -32 -25 -43 -25 -16 0 17 22 56 28 50 2 -2 1 -17 -3
-34z m-925 13 c0 -8 -5 -12 -10 -9 -6 4 -8 11 -5 16 9 14 15 11 15 -7z m210
-6 c10 -6 7 -7 -10 -2 -14 3 -32 11 -40 16 -10 6 -7 7 10 2 14 -3 32 -11 40
-16z m-700 -23 c13 -14 20 -25 16 -25 -5 0 -21 11 -38 25 -16 14 -23 25 -16
25 8 0 25 -11 38 -25z m700 -2 c0 -5 -51 -8 -112 -8 -62 0 -138 -4 -168 -9
-30 -5 -52 -6 -48 -2 18 20 328 37 328 19z m-170 -29 c0 -8 -4 -12 -10 -9 -5
3 -10 10 -10 16 0 5 5 9 10 9 6 0 10 -7 10 -16z m855 6 c18 -5 -3 -6 -50 -3
-44 3 -82 7 -84 9 -8 7 104 2 134 -6z m-1045 -10 c-34 -11 -60 -11 -35 0 11 5
29 8 40 8 16 0 15 -2 -5 -8z m275 -20 c-55 -9 -118 -20 -140 -24 l-40 -6 45
16 c68 24 109 32 175 32 58 0 57 0 -40 -18z m-345 0 c-8 -5 -19 -10 -25 -10
-5 0 -3 5 5 10 8 5 20 10 25 10 6 0 3 -5 -5 -10z m650 -11 l25 -20 -31 15
c-17 8 -42 13 -55 10 -21 -4 -22 -3 -4 5 29 14 37 13 65 -10z m-695 -9 c-3 -5
-12 -10 -18 -10 -7 0 -6 4 3 10 19 12 23 12 15 0z m359 -34 c12 3 8 -3 -12
-15 -37 -24 -49 -27 -34 -8 6 7 9 24 6 38 l-5 24 12 -23 c9 -16 18 -21 33 -16z
m186 23 c0 -11 -27 -12 -34 -1 -2 4 4 9 15 9 10 1 19 -2 19 -8z m-125 -9 c-3
-5 -14 -10 -23 -9 -14 0 -13 2 3 9 27 11 27 11 20 0z m747 3 c-7 -3 -16 -2
-19 1 -4 3 2 6 13 5 11 0 14 -3 6 -6z m-722 -16 c0 -2 -10 -12 -22 -23 l-23
-19 19 23 c18 21 26 27 26 19z m-67 -32 c-18 -24 -34 -28 -40 -9 -3 8 15 19
55 33 2 1 -5 -10 -15 -24z m13 -14 c-4 -5 -1 -11 6 -13 6 -2 -2 -18 -21 -39
l-32 -34 22 40 c12 22 21 41 20 43 -3 6 -1 12 5 12 3 0 3 -4 0 -9z m1044 -33
c10 -6 7 -7 -10 -2 -14 3 -32 11 -40 16 -10 6 -7 7 10 2 14 -3 32 -11 40 -16z
m-1000 8 c0 -2 -8 -10 -17 -17 -16 -13 -17 -12 -4 4 13 16 21 21 21 13z m-195
-16 c-3 -5 -11 -10 -16 -10 -6 0 -7 5 -4 10 3 6 11 10 16 10 6 0 7 -4 4 -10z
m80 -10 c-10 -11 -20 -20 -22 -20 -2 0 2 9 9 20 7 11 17 20 22 20 5 0 1 -9 -9
-20z m1180 -10 c3 -6 -1 -7 -9 -4 -18 7 -21 14 -7 14 6 0 13 -4 16 -10z
m-1184 -83 c-14 -30 -27 -50 -29 -46 -5 12 42 99 53 99 2 0 -9 -24 -24 -53z
m1289 37 l25 -15 -25 7 c-14 3 -29 10 -34 15 -16 14 6 10 34 -7z m-1237 -9
c-3 -9 -8 -14 -10 -11 -3 3 -2 9 2 15 9 16 15 13 8 -4z m-223 -25 c-6 -11 -13
-20 -16 -20 -2 0 0 9 6 20 6 11 13 20 16 20 2 0 0 -9 -6 -20z m1642 -304 c34
-25 46 -64 35 -107 -5 -22 -14 -38 -20 -36 -8 2 -44 119 -46 150 -1 11 12 8
31 -7z m-3277 -1163 c4 -29 10 -53 14 -53 4 0 17 -30 30 -66 12 -36 32 -86 44
-112 39 -86 39 -86 24 -73 -8 6 -37 9 -70 7 -32 -2 -55 0 -51 5 3 5 -12 9 -34
9 -27 0 -45 6 -58 21 -10 12 -31 28 -47 35 -15 8 -25 19 -22 23 5 10 -21 68
-36 76 -5 4 -9 16 -9 28 0 16 3 18 12 9 18 -18 27 -14 21 8 -4 13 2 27 17 40
16 14 20 25 15 42 -5 18 -4 20 4 8 6 -8 11 -10 11 -4 0 7 7 15 16 18 12 5 15
2 10 -11 -5 -15 -4 -15 9 1 8 11 15 24 15 29 0 4 4 6 10 2 5 -3 19 4 31 16 27
27 34 17 44 -58z m-189 -30 c-3 -4 -6 2 -5 13 0 11 3 14 6 6 3 -7 2 -16 -1
-19z m3034 -538 c0 -17 -165 -186 -200 -205 -14 -7 11 21 56 63 44 41 93 94
109 116 30 45 35 48 35 26z m20 -69 c0 -7 -18 -33 -41 -57 l-40 -44 38 57 c42
63 43 64 43 44z m-2256 -60 c6 -26 5 -28 -8 -17 -9 8 -16 25 -16 39 0 32 15
18 24 -22z m1992 -5 c24 20 15 -2 -15 -36 -18 -21 -33 -30 -41 -25 -9 6 -6 12
13 25 14 9 25 22 23 28 -1 7 -1 8 2 4 2 -4 10 -3 18 4z m64 -86 c0 -2 -10 -9
-22 -15 -22 -11 -22 -10 -4 4 21 17 26 19 26 11z m-150 -8 c0 -2 -10 -12 -22
-23 l-23 -19 19 23 c18 21 26 27 26 19z m60 -27 c0 -11 -33 -30 -52 -30 -7 1
-3 9 11 20 25 22 41 26 41 10z m-448 -62 c-7 -7 -12 -8 -12 -2 0 14 12 26 19
19 2 -3 -1 -11 -7 -17z m-843 -12 c10 -12 8 -13 -8 -9 -12 3 -21 9 -21 14 0
14 16 11 29 -5z m236 -26 c3 -5 2 -10 -4 -10 -5 0 -13 5 -16 10 -3 6 -2 10 4
10 5 0 13 -4 16 -10z"/>
<path d="M3030 2883 c8 -3 35 -24 60 -47 l45 -41 -45 48 c-24 26 -51 47 -60
46 -13 0 -13 -1 0 -6z"/>
<path d="M1905 2869 c-4 -6 -5 -12 -2 -15 2 -3 7 2 10 11 7 17 1 20 -8 4z"/>
<path d="M1301 2833 c-38 -47 -43 -77 -6 -43 26 24 33 36 15 25 -18 -11 -11 8
12 32 12 13 19 23 15 23 -3 0 -19 -17 -36 -37z"/>
<path d="M1486 2853 c-6 -14 -5 -15 5 -6 7 7 10 15 7 18 -3 3 -9 -2 -12 -12z"/>
<path d="M3220 2846 c0 -3 9 -10 20 -16 11 -6 20 -8 20 -6 0 3 -9 10 -20 16
-11 6 -20 8 -20 6z"/>
<path d="M3293 2802 c4 -6 22 -21 39 -34 17 -12 28 -17 25 -10 -4 6 -22 21
-39 34 -17 12 -28 17 -25 10z"/>
<path d="M1554 2782 c-44 -71 -65 -112 -57 -112 8 0 75 121 70 126 -2 2 -7 -5
-13 -14z"/>
<path d="M1620 2759 c-12 -23 -20 -43 -18 -45 3 -2 14 17 26 41 27 56 20 60
-8 4z"/>
<path d="M2796 2786 c6 -15 4 -17 -7 -11 -11 7 -11 5 1 -10 14 -17 15 -17 18
0 2 9 -1 22 -8 29 -8 8 -9 6 -4 -8z"/>
<path d="M1595 2760 c-9 -16 -13 -30 -11 -30 3 0 12 14 21 30 9 17 13 30 11
30 -3 0 -12 -13 -21 -30z"/>
<path d="M1234 2758 l-19 -23 23 19 c21 18 27 26 19 26 -2 0 -12 -10 -23 -22z"/>
<path d="M1400 2730 c-14 -20 -16 -28 -7 -24 13 5 42 54 32 54 -2 0 -13 -13
-25 -30z"/>
<path d="M2780 2740 c6 -11 13 -20 16 -20 2 0 0 9 -6 20 -6 11 -13 20 -16 20
-2 0 0 -9 6 -20z"/>
<path d="M3125 2720 c10 -11 20 -20 23 -20 3 0 -3 9 -13 20 -10 11 -20 20 -23
20 -3 0 3 -9 13 -20z"/>
<path d="M980 2710 c-14 -10 -22 -21 -19 -24 3 -3 16 5 29 19 28 30 24 32 -10
5z"/>
<path d="M1201 2716 c-4 -6 -11 -20 -15 -30 -5 -16 -4 -17 9 -6 8 7 15 19 15
27 0 8 4 12 9 8 5 -3 12 -2 15 3 8 13 -23 11 -33 -2z"/>
<path d="M1877 2703 c-7 -37 8 -53 17 -17 4 15 3 31 -2 36 -6 6 -12 -2 -15
-19z"/>
<path d="M3260 2715 c7 -8 15 -15 17 -15 3 0 0 7 -7 15 -7 8 -15 15 -17 15 -3
0 0 -7 7 -15z"/>
<path d="M1485 2709 c-4 -6 -5 -12 -2 -15 2 -3 7 2 10 11 7 17 1 20 -8 4z"/>
<path d="M3440 2665 c19 -19 36 -35 39 -35 3 0 -10 16 -29 35 -19 19 -36 35
-39 35 -3 0 10 -16 29 -35z"/>
<path d="M1336 2665 c-18 -27 -20 -35 -8 -35 13 1 42 49 33 54 -5 3 -16 -5
-25 -19z"/>
<path d="M3225 2670 c10 -11 20 -20 23 -20 3 0 -3 9 -13 20 -10 11 -20 20 -23
20 -3 0 3 -9 13 -20z"/>
<path d="M3180 2667 c0 -14 73 -102 91 -109 14 -5 17 -3 12 10 -9 26 -24 42
-33 37 -5 -3 -22 12 -39 32 -17 21 -31 34 -31 30z"/>
<path d="M1530 2639 c-7 -11 -10 -23 -7 -25 2 -2 9 7 15 21 14 30 7 33 -8 4z"/>
<path d="M1431 2612 l-24 -37 32 29 c34 33 34 33 23 40 -4 2 -18 -12 -31 -32z"/>
<path d="M2850 2636 c0 -11 30 -66 36 -66 2 0 -3 15 -12 33 -19 36 -24 44 -24
33z"/>
<path d="M1133 2603 c-34 -48 -38 -59 -14 -38 25 22 45 54 38 61 -3 3 -14 -7
-24 -23z"/>
<path d="M2900 2625 c0 -5 5 -17 10 -25 5 -8 10 -10 10 -5 0 6 -5 17 -10 25
-5 8 -10 11 -10 5z"/>
<path d="M2001 2606 c-1 -11 2 -17 5 -13 3 3 4 12 1 19 -3 8 -6 5 -6 -6z"/>
<path d="M1853 2595 c-3 -9 -3 -18 -1 -21 3 -3 8 4 11 16 6 23 -1 27 -10 5z"/>
<path d="M2631 2596 c-1 -11 2 -17 5 -13 3 3 4 12 1 19 -3 8 -6 5 -6 -6z"/>
<path d="M2016 2585 c-9 -26 -7 -32 5 -12 6 10 9 21 6 23 -2 3 -7 -2 -11 -11z"/>
<path d="M1587 2487 c-51 -52 -122 -130 -159 -173 -37 -43 -79 -92 -93 -109
-39 -45 -96 -151 -122 -225 -12 -36 -22 -67 -23 -70 0 -3 42 -2 93 3 50 5 165
10 254 11 90 1 166 5 169 8 3 4 0 17 -7 30 -9 15 -13 65 -14 148 l0 125 38 0
c20 0 37 3 37 8 0 12 27 8 39 -7 9 -11 9 -15 -1 -19 -7 -3 2 -6 20 -6 43 -1
42 18 -5 106 -20 37 -48 102 -63 144 -15 42 -37 86 -49 98 l-22 22 -92 -94z
m83 -13 c22 -21 -1 -17 -35 7 -28 19 -28 20 -5 14 14 -4 32 -13 40 -21z m45 6
c3 -5 2 -10 -4 -10 -5 0 -13 5 -16 10 -3 6 -2 10 4 10 5 0 13 -4 16 -10z
m-115 -30 c12 -8 12 -10 -2 -15 -20 -8 -41 2 -33 16 8 11 16 11 35 -1z m140
-26 c0 -8 -4 -12 -10 -9 -5 3 -10 10 -10 16 0 5 5 9 10 9 6 0 10 -7 10 -16z
m-37 -18 c21 -16 22 -30 2 -46 -12 -10 -19 -10 -27 -2 -9 9 -9 12 1 12 7 0 9
5 6 11 -4 6 -13 8 -20 5 -19 -7 -26 4 -12 20 15 17 27 17 50 0z m-92 -17 c11
-5 17 -14 14 -19 -3 -5 6 -12 20 -16 29 -7 32 -18 7 -36 -9 -7 -25 -25 -35
-40 -13 -21 -26 -28 -50 -29 -30 -1 -31 -1 -7 -9 21 -7 18 -8 -20 -11 -38 -2
-40 -3 -12 -6 38 -5 41 -16 10 -38 -13 -8 -22 -18 -20 -20 6 -12 0 -26 -21
-49 -14 -15 -28 -49 -36 -90 -7 -36 -20 -71 -29 -78 -14 -12 -186 -21 -204
-11 -4 2 2 24 15 48 14 29 29 45 42 45 18 1 18 2 -3 11 -23 9 -23 9 -5 39 9
16 21 30 25 30 4 0 8 7 8 15 0 10 10 15 27 15 14 0 23 3 20 7 -4 3 8 17 26 31
l32 24 -27 -4 c-16 -3 -28 -1 -28 3 0 5 9 9 21 9 11 0 17 4 14 10 -3 5 7 12
22 16 45 10 49 12 23 14 -14 1 -29 2 -33 1 -5 -1 -6 3 -2 9 3 6 11 7 17 4 7
-4 8 -2 4 5 -9 14 17 41 41 41 13 0 15 2 5 9 -21 13 11 40 41 34 14 -3 28 0
31 6 4 6 21 8 39 6 29 -4 28 -4 -5 6 -21 6 -38 15 -38 20 0 12 47 11 71 -2z
m-81 -19 c0 -5 -4 -10 -10 -10 -5 0 -10 5 -10 10 0 6 5 10 10 10 6 0 10 -4 10
-10z"/>
<path d="M1515 2320 c-3 -5 -2 -10 4 -10 5 0 13 5 16 10 3 6 2 10 -4 10 -5 0
-13 -4 -16 -10z"/>
<path d="M1473 2193 c9 -2 25 -2 35 0 9 3 1 5 -18 5 -19 0 -27 -2 -17 -5z"/>
<path d="M1448 2163 c6 -2 18 -2 25 0 6 3 1 5 -13 5 -14 0 -19 -2 -12 -5z"/>
<path d="M1350 2106 c0 -8 61 -12 66 -4 3 4 -11 8 -30 8 -20 0 -36 -2 -36 -4z"/>
<path d="M3500 2561 c0 -5 5 -13 10 -16 6 -3 10 -2 10 4 0 5 -4 13 -10 16 -5
3 -10 2 -10 -4z"/>
<path d="M2000 2541 c0 -7 -4 -10 -9 -7 -8 5 -35 -113 -27 -121 1 -2 13 27 24
64 12 36 20 69 17 71 -3 3 -5 0 -5 -7z"/>
<path d="M2612 2443 c-29 -49 -43 -78 -32 -65 35 42 55 5 22 -39 -21 -27 -57
-94 -99 -186 -15 -35 -31 -63 -35 -63 -5 0 -8 -7 -8 -15 0 -8 -4 -15 -10 -15
-5 0 -7 -6 -4 -13 2 -7 -2 -27 -11 -43 -8 -16 -15 -37 -15 -47 0 -10 -10 -22
-22 -27 l-23 -9 25 -2 c36 -3 414 2 418 6 1 1 -9 33 -24 71 -14 38 -28 78 -29
89 -2 11 -9 34 -16 52 -16 39 -9 47 41 48 22 0 40 3 40 7 0 9 60 22 93 19 15
-1 27 2 27 7 0 16 -61 101 -122 170 -99 112 -131 142 -148 142 -9 0 -37 -36
-68 -87z m32 -34 c-12 -14 -21 -16 -28 -9 -8 8 -6 14 4 20 8 5 12 10 7 10 -4
0 1 12 10 27 l18 27 3 -28 c2 -16 -4 -36 -14 -47z m96 58 c0 -2 -15 -14 -32
-27 l-33 -23 24 26 c21 23 41 35 41 24z m-10 -66 c-6 -12 -16 -19 -21 -15 -6
4 -4 13 7 25 21 24 29 18 14 -10z m26 1 c-18 -16 -18 -16 -6 6 6 13 14 21 18
18 3 -4 -2 -14 -12 -24z m-18 -50 c-12 -16 -11 -16 7 0 20 17 37 21 67 19 16
-1 16 -3 1 -29 -8 -15 -26 -35 -40 -45 -23 -18 -23 -18 -39 19 -16 37 -12 70
6 59 8 -5 7 -12 -2 -23z m98 -41 c-9 -10 -13 -20 -10 -24 3 -3 -4 -11 -16 -17
-12 -6 -20 -14 -17 -16 3 -3 20 4 38 15 37 23 59 27 59 11 0 -6 -13 -13 -30
-16 -16 -4 -30 -11 -30 -16 0 -6 8 -7 18 -3 37 15 55 18 49 7 -4 -5 -4 -12 0
-15 5 -2 2 -2 -4 -1 -7 2 -28 -3 -47 -11 -52 -22 -63 -19 -70 20 -6 30 -3 38
31 69 37 34 60 32 29 -3z m-116 -162 c0 -11 5 -29 10 -39 8 -15 6 -21 -7 -29
-17 -10 -17 -10 0 -11 10 0 15 -4 12 -10 -3 -5 -1 -10 4 -10 18 0 12 -18 -6
-23 -14 -4 -12 -5 5 -6 23 -1 32 -30 10 -32 -7 0 -4 -4 6 -8 17 -6 15 -10 -16
-28 -21 -12 -41 -18 -48 -13 -7 5 -19 6 -26 3 -8 -3 -16 5 -19 19 -6 25 0 91
9 107 3 5 2 11 -3 13 -4 1 -11 13 -15 25 -6 17 0 27 30 47 40 27 54 26 54 -5z
m55 -208 c-8 -13 -35 -15 -35 -2 0 5 8 11 18 13 21 5 26 2 17 -11z"/>
<path d="M2775 2350 c-10 -11 -16 -22 -14 -24 2 -2 12 7 22 20 22 29 17 32 -8
4z"/>
<path d="M3575 2473 c8 -16 31 -50 51 -78 19 -27 33 -56 31 -65 -2 -9 1 -17 8
-17 19 0 0 51 -48 125 -40 61 -72 88 -42 35z"/>
<path d="M2960 2475 c0 -5 5 -17 10 -25 5 -8 10 -10 10 -5 0 6 -5 17 -10 25
-5 8 -10 11 -10 5z"/>
<path d="M2921 2443 c-1 -24 17 -78 24 -71 2 2 -2 24 -10 48 -8 27 -14 36 -14
23z"/>
<path d="M3331 2451 c-10 -6 -6 -21 18 -67 16 -33 30 -55 31 -51 0 4 -7 21
-15 37 -8 16 -12 35 -9 44 8 21 -8 47 -25 37z"/>
<path d="M1006 2395 c-5 -11 -10 -27 -11 -36 -1 -10 -11 -30 -22 -45 -28 -41
-35 -54 -28 -54 14 0 76 113 73 133 -3 21 -3 21 -12 2z"/>
<path d="M1921 2336 c-1 -11 2 -17 5 -13 3 3 4 12 1 19 -3 8 -6 5 -6 -6z"/>
<path d="M2532 2323 c-13 -14 -30 -40 -39 -57 -8 -17 -22 -38 -30 -47 -7 -9
-15 -26 -18 -37 -2 -11 -9 -30 -15 -42 -6 -12 -10 -24 -7 -26 2 -2 10 7 17 21
7 14 23 26 34 26 18 1 18 2 3 6 -17 4 -17 6 -2 17 9 6 18 25 19 41 2 16 10 33
18 39 8 6 13 16 11 23 -2 6 6 18 18 26 11 9 20 20 18 26 -2 5 -14 -2 -27 -16z"/>
<path d="M1125 2329 c-4 -6 -5 -12 -2 -15 2 -3 7 2 10 11 7 17 1 20 -8 4z"/>
<path d="M1158 2308 c-14 -14 -15 -18 -4 -18 8 0 17 7 20 16 9 23 4 24 -16 2z"/>
<path d="M1943 2285 c0 -27 2 -38 4 -22 2 15 2 37 0 50 -2 12 -4 0 -4 -28z"/>
<path d="M1349 2303 c-13 -16 -12 -17 4 -4 16 13 21 21 13 21 -2 0 -10 -8 -17
-17z"/>
<path d="M3383 2307 c4 -10 14 -43 23 -75 9 -31 23 -66 30 -77 19 -26 18 -20
-6 43 -11 29 -20 60 -20 70 0 9 -8 26 -17 37 -13 17 -15 17 -10 2z"/>
<path d="M2970 2289 c0 -14 7 -34 15 -45 14 -18 14 -16 9 16 -8 44 -24 63 -24
29z"/>
<path d="M3180 2301 c0 -6 4 -13 10 -16 6 -3 7 1 4 9 -7 18 -14 21 -14 7z"/>
<path d="M920 2280 c-6 -11 -8 -20 -6 -20 3 0 10 9 16 20 6 11 8 20 6 20 -3 0
-10 -9 -16 -20z"/>
<path d="M3680 2242 c21 -64 49 -132 49 -117 0 6 -8 42 -19 80 -11 39 -20 73
-20 76 0 4 -6 9 -14 12 -11 4 -10 -7 4 -51z"/>
<path d="M1136 2234 c-10 -25 -22 -41 -25 -35 -4 6 -7 -6 -7 -26 0 -37 0 -37
28 26 16 35 28 67 26 72 -2 5 -11 -12 -22 -37z"/>
<path d="M925 2239 c-4 -6 -5 -12 -2 -15 2 -3 7 2 10 11 7 17 1 20 -8 4z"/>
<path d="M3251 2206 c-1 -11 2 -17 5 -13 3 3 4 12 1 19 -3 8 -6 5 -6 -6z"/>
<path d="M886 2174 c-10 -25 1 -29 14 -5 6 12 7 21 1 21 -5 0 -12 -7 -15 -16z"/>
<path d="M3051 2176 c-1 -11 2 -17 5 -13 3 3 4 12 1 19 -3 8 -6 5 -6 -6z"/>
<path d="M3781 2146 c-1 -11 2 -17 5 -13 3 3 4 12 1 19 -3 8 -6 5 -6 -6z"/>
<path d="M806 2134 c-9 -23 -7 -36 4 -29 6 3 10 0 10 -7 0 -8 5 -6 11 5 6 10
8 21 5 24 -3 4 -6 1 -6 -6 0 -7 -4 -10 -10 -6 -5 3 -7 12 -3 20 3 8 3 15 0 15
-3 0 -8 -7 -11 -16z"/>
<path d="M1923 2110 c0 -25 2 -35 4 -22 2 12 2 32 0 45 -2 12 -4 2 -4 -23z"/>
<path d="M2310 2136 c0 -18 6 -21 15 -7 3 5 1 12 -5 16 -5 3 -10 -1 -10 -9z"/>
<path d="M3061 2126 c-1 -11 2 -17 5 -13 3 3 4 12 1 19 -3 8 -6 5 -6 -6z"/>
<path d="M1842 2090 c0 -14 2 -19 5 -12 2 6 2 18 0 25 -3 6 -5 1 -5 -13z"/>
<path d="M2162 2080 c0 -19 2 -27 5 -17 2 9 2 25 0 35 -3 9 -5 1 -5 -18z"/>
<path d="M3734 2075 c3 -22 8 -70 11 -107 4 -38 11 -68 16 -68 5 0 7 10 5 23
-3 12 -8 50 -11 85 -3 35 -10 73 -16 85 -7 17 -8 13 -5 -18z"/>
<path d="M1791 2086 c-1 -11 2 -17 5 -13 3 3 4 12 1 19 -3 8 -6 5 -6 -6z"/>
<path d="M2384 2048 c-37 -63 -54 -131 -29 -122 8 3 13 10 10 14 -8 13 16 74
37 93 11 9 15 17 8 17 -10 0 -10 3 0 15 6 8 10 19 8 25 -2 6 -17 -13 -34 -42z"/>
<path d="M2922 2065 c0 -16 2 -24 5 -18 2 7 2 21 0 30 -3 10 -5 5 -5 -12z"/>
<path d="M3230 2081 c0 -6 4 -13 10 -16 6 -3 7 1 4 9 -7 18 -14 21 -14 7z"/>
<path d="M2891 2066 c-1 -11 2 -17 5 -13 3 3 4 12 1 19 -3 8 -6 5 -6 -6z"/>
<path d="M2981 2066 c-1 -11 2 -17 5 -13 3 3 4 12 1 19 -3 8 -6 5 -6 -6z"/>
<path d="M2303 2035 c-1 -22 1 -32 4 -23 2 10 2 28 0 40 -2 13 -4 5 -4 -17z"/>
<path d="M3561 2056 c-1 -11 2 -17 5 -13 3 3 4 12 1 19 -3 8 -6 5 -6 -6z"/>
<path d="M1922 2000 c-2 -63 -4 -67 -54 -127 -29 -33 -63 -64 -75 -67 -15 -4
-23 -14 -23 -27 0 -18 6 -15 47 21 37 32 52 40 73 35 24 -5 24 -5 6 10 -11 8
-18 16 -15 17 34 21 49 27 49 18 0 -5 7 -10 15 -10 17 0 20 16 5 25 -11 7 38
65 56 65 6 0 14 -7 18 -15 3 -8 16 -15 28 -15 15 0 27 -9 35 -25 11 -24 8 -29
-37 -71 -27 -25 -58 -54 -69 -63 -12 -10 -21 -22 -21 -27 0 -16 -45 -74 -58
-74 -7 0 -11 -4 -8 -8 3 -5 -4 -16 -15 -25 -17 -15 -25 -15 -65 -5 -26 7 -49
18 -51 25 -3 7 -12 13 -20 13 -8 0 -13 6 -10 13 2 6 10 11 18 10 9 -2 14 8 15
27 l1 30 -28 -38 c-45 -59 -48 -55 89 -103 60 -21 62 -23 63 -58 1 -20 5 -49
9 -66 6 -24 8 -18 9 32 l1 61 38 6 c20 3 88 8 151 12 97 5 232 32 248 48 6 6
-38 86 -48 86 -4 0 -18 17 -30 38 -13 20 -35 49 -49 63 -14 14 -37 41 -52 60
-104 131 -104 131 -171 85 -29 -20 -55 -36 -59 -36 -4 0 -9 28 -11 63 l-3 62
-2 -65z m248 -131 c80 -99 140 -193 127 -201 -9 -6 -8 -8 3 -9 10 0 8 -3 -5
-9 -11 -5 -23 -9 -28 -9 -4 -1 -27 40 -52 90 -24 50 -55 104 -70 120 -14 16
-26 40 -27 54 -1 14 -6 25 -10 25 -4 0 -12 10 -18 23 -12 24 17 -6 80 -84z"/>
<path d="M3031 2046 c-1 -11 2 -17 5 -13 3 3 4 12 1 19 -3 8 -6 5 -6 -6z"/>
<path d="M3072 2040 c0 -14 2 -19 5 -12 2 6 2 18 0 25 -3 6 -5 1 -5 -13z"/>
<path d="M1034 2023 c-3 -16 -12 -45 -20 -66 -8 -20 -14 -52 -15 -70 0 -36
-16 -82 -19 -57 -3 18 -19 -56 -19 -85 -1 -35 15 3 49 120 28 97 44 185 34
185 -2 0 -6 -12 -10 -27z"/>
<path d="M3271 2036 c-1 -11 2 -17 5 -13 3 3 4 12 1 19 -3 8 -6 5 -6 -6z"/>
<path d="M1001 2016 c-1 -11 2 -17 5 -13 3 3 4 12 1 19 -3 8 -6 5 -6 -6z"/>
<path d="M1893 1995 c-1 -22 1 -32 4 -23 2 10 2 28 0 40 -2 13 -4 5 -4 -17z"/>
<path d="M2992 2010 c0 -14 2 -19 5 -12 2 6 2 18 0 25 -3 6 -5 1 -5 -13z"/>
<path d="M805 2009 c-4 -5 -4 -13 -1 -16 3 -4 6 -1 6 6 0 7 5 9 10 6 6 -3 10
-4 10 -1 0 11 -19 16 -25 5z"/>
<path d="M771 1975 c0 -11 3 -26 8 -33 6 -10 10 -8 14 9 4 13 4 25 2 28 -3 2
-5 -2 -6 -10 0 -8 -4 -6 -9 6 l-9 20 0 -20z"/>
<path d="M951 1976 c-1 -11 2 -17 5 -13 3 3 4 12 1 19 -3 8 -6 5 -6 -6z"/>
<path d="M992 1960 c0 -14 2 -19 5 -12 2 6 2 18 0 25 -3 6 -5 1 -5 -13z"/>
<path d="M2960 1976 c0 -3 5 -8 10 -11 6 -3 10 -1 10 4 0 6 -4 11 -10 11 -5 0
-10 -2 -10 -4z"/>
<path d="M3001 1956 c-1 -11 2 -17 5 -13 3 3 4 12 1 19 -3 8 -6 5 -6 -6z"/>
<path d="M3282 1940 c0 -14 2 -19 5 -12 2 6 2 18 0 25 -3 6 -5 1 -5 -13z"/>
<path d="M3587 1925 c7 -49 13 -58 13 -19 0 16 -5 36 -10 44 -6 10 -7 2 -3
-25z"/>
<path d="M3791 1946 c-1 -11 2 -17 5 -13 3 3 4 12 1 19 -3 8 -6 5 -6 -6z"/>
<path d="M2912 1930 c0 -14 2 -19 5 -12 2 6 2 18 0 25 -3 6 -5 1 -5 -13z"/>
<path d="M1980 1935 c0 -14 -3 -21 -13 -28 -8 -6 -5 -7 6 -3 10 3 28 1 39 -5
16 -9 19 -8 13 2 -6 9 -2 11 13 7 35 -9 25 7 -11 20 -36 13 -47 15 -47 7z"/>
<path d="M932 1870 c0 -14 2 -19 5 -12 2 6 2 18 0 25 -3 6 -5 1 -5 -13z"/>
<path d="M2361 1876 c-1 -11 2 -17 5 -13 3 3 4 12 1 19 -3 8 -6 5 -6 -6z"/>
<path d="M3053 1845 c0 -27 2 -38 4 -22 2 15 2 37 0 50 -2 12 -4 0 -4 -28z"/>
<path d="M3092 1860 c0 -14 2 -19 5 -12 2 6 2 18 0 25 -3 6 -5 1 -5 -13z"/>
<path d="M3371 1827 c-1 -32 -5 -56 -10 -53 -14 9 -23 -25 -10 -40 22 -27 39
-4 38 55 -1 80 -17 114 -18 38z"/>
<path d="M3821 1866 c-1 -11 2 -17 5 -13 3 3 4 12 1 19 -3 8 -6 5 -6 -6z"/>
<path d="M781 1856 c-1 -11 2 -17 5 -13 3 3 4 12 1 19 -3 8 -6 5 -6 -6z"/>
<path d="M3012 1840 c0 -19 2 -27 5 -17 2 9 2 25 0 35 -3 9 -5 1 -5 -18z"/>
<path d="M3302 1845 c0 -16 2 -24 5 -18 2 7 2 21 0 30 -3 10 -5 5 -5 -12z"/>
<path d="M1312 1847 c-6 -7 -7 -19 -3 -26 6 -9 10 -5 13 13 6 30 5 31 -10 13z"/>
<path d="M1544 1811 c-14 -68 -3 -88 12 -21 7 30 9 58 5 63 -4 4 -12 -15 -17
-42z"/>
<path d="M2922 1840 c0 -14 2 -19 5 -12 2 6 2 18 0 25 -3 6 -5 1 -5 -13z"/>
<path d="M712 1830 c0 -14 2 -19 5 -12 2 6 2 18 0 25 -3 6 -5 1 -5 -13z"/>
<path d="M1271 1836 c-1 -11 2 -17 5 -13 3 3 4 12 1 19 -3 8 -6 5 -6 -6z"/>
<path d="M2722 1825 c0 -16 2 -24 5 -18 2 7 2 21 0 30 -3 10 -5 5 -5 -12z"/>
<path d="M3342 1830 c0 -14 2 -19 5 -12 2 6 2 18 0 25 -3 6 -5 1 -5 -13z"/>
<path d="M3762 1830 c0 -14 2 -19 5 -12 2 6 2 18 0 25 -3 6 -5 1 -5 -13z"/>
<path d="M1985 1831 c3 -5 -3 -12 -12 -14 -14 -4 -14 -5 3 -6 12 0 24 6 28 14
3 9 0 15 -10 15 -8 0 -13 -4 -9 -9z"/>
<path d="M3127 1820 c3 -11 7 -20 9 -20 2 0 4 9 4 20 0 11 -4 20 -9 20 -5 0
-7 -9 -4 -20z"/>
<path d="M922 1810 c0 -14 2 -19 5 -12 2 6 2 18 0 25 -3 6 -5 1 -5 -13z"/>
<path d="M772 1800 c0 -14 2 -19 5 -12 2 6 2 18 0 25 -3 6 -5 1 -5 -13z"/>
<path d="M2403 1765 c0 -33 2 -48 4 -33 2 15 2 42 0 60 -2 18 -4 6 -4 -27z"/>
<path d="M2362 1780 c0 -14 2 -19 5 -12 2 6 2 18 0 25 -3 6 -5 1 -5 -13z"/>
<path d="M3802 1702 l2 -97 6 90 6 90 5 -75 5 -75 2 76 c2 60 -1 78 -13 83
-13 5 -15 -9 -13 -92z"/>
<path d="M1890 1780 c0 -5 5 -10 10 -10 6 0 10 5 10 10 0 6 -4 10 -10 10 -5 0
-10 -4 -10 -10z"/>
<path d="M702 1760 c0 -14 2 -19 5 -12 2 6 2 18 0 25 -3 6 -5 1 -5 -13z"/>
<path d="M3313 1725 c0 -33 2 -48 4 -33 2 15 2 42 0 60 -2 18 -4 6 -4 -27z"/>
<path d="M720 1750 c0 -11 5 -20 10 -20 6 0 10 9 10 20 0 11 -4 20 -10 20 -5
0 -10 -9 -10 -20z"/>
<path d="M3612 1750 c0 -14 2 -19 5 -12 2 6 2 18 0 25 -3 6 -5 1 -5 -13z"/>
<path d="M3771 1728 c0 -26 3 -49 7 -52 4 -2 6 12 4 32 -6 62 -10 69 -11 20z"/>
<path d="M761 1746 c-1 -11 2 -17 5 -13 3 3 4 12 1 19 -3 8 -6 5 -6 -6z"/>
<path d="M3022 1735 c0 -16 2 -24 5 -18 2 7 2 21 0 30 -3 10 -5 5 -5 -12z"/>
<path d="M1262 1725 c0 -16 2 -24 5 -18 2 7 2 21 0 30 -3 10 -5 5 -5 -12z"/>
<path d="M1286 1713 c-6 -14 -5 -15 5 -6 7 7 10 15 7 18 -3 3 -9 -2 -12 -12z"/>
<path d="M1571 1706 c-1 -11 2 -17 5 -13 3 3 4 12 1 19 -3 8 -6 5 -6 -6z"/>
<path d="M746 1653 c7 -27 22 -73 33 -103 12 -30 21 -56 21 -58 0 -2 5 0 12 4
7 4 8 3 4 -4 -8 -13 25 -81 60 -128 21 -27 30 -31 76 -31 47 -1 49 0 18 6 -47
10 -70 26 -98 69 -23 35 -18 52 13 52 6 0 3 -4 -5 -10 -8 -5 -12 -11 -9 -14 2
-3 11 -1 18 4 17 10 6 44 -12 37 -48 -20 -50 -20 -45 -6 2 8 20 17 39 20 28 5
31 7 16 14 -15 6 -16 10 -5 16 29 19 48 9 68 -35 11 -25 25 -48 30 -51 6 -4 8
-10 5 -15 -3 -4 39 -11 92 -15 54 -4 111 -13 127 -21 16 -8 35 -14 42 -14 15
0 74 -69 74 -87 0 -6 17 -29 38 -50 54 -53 59 -78 18 -94 -17 -7 -43 -21 -58
-31 -16 -11 -28 -17 -28 -14 0 3 24 22 53 42 32 22 42 33 27 29 -54 -16 -99
-45 -102 -67 -3 -21 -5 -20 -22 11 -10 19 -26 43 -36 54 -11 11 -41 52 -69 93
-46 66 -49 74 -33 84 15 10 15 11 -3 4 -11 -4 -38 -10 -60 -14 l-40 -7 37 -2
c45 -1 79 -40 169 -189 17 -30 37 -56 45 -59 7 -2 39 5 71 17 134 51 215 80
224 80 13 0 109 -90 109 -102 0 -20 90 -145 137 -191 l49 -47 61 40 c34 22 65
40 68 40 3 0 47 28 97 63 145 99 128 96 222 51 45 -21 88 -44 97 -51 9 -7 18
-11 21 -7 3 3 57 -18 119 -46 95 -44 117 -51 143 -43 33 9 44 28 144 238 64
135 52 128 182 115 36 -4 74 -3 85 1 19 7 18 8 -4 8 l-23 1 23 24 c13 14 24
29 25 33 2 33 18 75 32 82 9 4 37 9 62 9 25 0 50 2 55 4 6 1 11 0 13 -4 7 -24
-2 -41 -30 -54 l-33 -15 30 5 c30 6 30 5 -5 -12 -61 -30 -67 -42 -21 -42 30 0
41 -4 41 -15 0 -17 -5 -18 -70 -17 l-45 1 53 -10 c29 -6 59 -8 66 -6 8 3 19
36 25 74 7 37 19 79 28 92 13 20 21 23 56 18 62 -8 138 3 144 22 7 21 23 58
72 165 23 49 39 92 36 95 -3 3 -16 -1 -28 -9 -108 -68 -179 -102 -205 -96 -19
5 -23 4 -13 -3 11 -7 5 -11 -23 -16 -40 -8 -64 2 -28 12 32 8 27 23 -7 23 -16
0 -42 5 -58 11 -26 10 -30 8 -53 -23 -23 -29 -50 -56 -143 -140 -16 -14 -35
-25 -41 -23 -47 17 -258 75 -269 75 -13 0 -67 -53 -67 -65 0 -4 -26 -38 -57
-78 -32 -39 -63 -78 -69 -86 -10 -13 -16 -13 -50 1 -22 8 -70 23 -109 32 -38
10 -99 30 -134 47 l-64 29 -51 -32 c-28 -18 -55 -37 -61 -43 -20 -22 -122 -95
-132 -95 -11 0 -128 135 -198 227 -37 51 -41 53 -82 50 -24 -1 -43 -5 -43 -8
0 -3 -15 -11 -32 -17 -26 -9 -27 -11 -6 -7 30 6 48 -12 27 -27 -9 -6 1 -7 31
-4 l45 5 -25 -20 c-13 -12 -26 -17 -28 -11 -3 10 -52 4 -52 -8 0 -7 -179 -4
-187 4 -3 2 24 14 59 25 34 11 56 20 47 20 -9 1 -53 -11 -99 -25 l-84 -27 -33
39 c-18 22 -54 71 -80 109 -25 39 -48 72 -50 74 -1 2 -40 -8 -85 -22 -103 -32
-148 -41 -148 -30 0 5 -16 17 -36 27 -42 19 -144 97 -144 108 0 5 -4 8 -9 8
-4 0 -2 -21 5 -47z m2826 -20 c-7 -3 -16 -2 -19 1 -4 3 2 6 13 5 11 0 14 -3 6
-6z m-17 -53 c-3 -5 -25 -10 -48 -10 -31 0 -38 3 -27 10 20 13 83 13 75 0z
m-315 -10 c0 -5 -5 -10 -11 -10 -5 0 -7 5 -4 10 3 6 8 10 11 10 2 0 4 -4 4
-10z m50 0 c0 -5 -5 -10 -11 -10 -5 0 -7 5 -4 10 3 6 8 10 11 10 2 0 4 -4 4
-10z m-2190 -10 c0 -5 -11 -10 -25 -10 -14 0 -25 5 -25 10 0 6 11 10 25 10 14
0 25 -4 25 -10z m70 0 c0 -5 -4 -10 -10 -10 -5 0 -10 5 -10 10 0 6 5 10 10 10
6 0 10 -4 10 -10z m-310 -10 c-8 -5 -24 -9 -35 -9 -16 1 -16 2 5 9 35 11 48
11 30 0z m50 0 c0 -5 -4 -10 -10 -10 -5 0 -10 5 -10 10 0 6 5 10 10 10 6 0 10
-4 10 -10z m2640 5 c0 -2 -14 -34 -32 -70 l-32 -65 -78 0 -79 0 15 28 c37 67
79 97 122 86 19 -5 25 -4 20 4 -4 8 -2 10 7 6 8 -3 18 -1 22 5 6 11 35 16 35
6z m-1844 -95 c8 0 14 -7 14 -15 0 -20 -10 -19 -40 6 -18 15 -20 19 -7 15 10
-3 25 -6 33 -6z m1164 -20 c-20 -13 -53 -13 -45 0 3 6 18 10 33 10 21 0 24 -2
12 -10z m-670 -120 c12 -8 12 -10 -5 -9 -11 0 -29 4 -40 9 -18 8 -18 9 5 9 14
0 32 -4 40 -9z m-20 -21 c21 -7 19 -8 -10 -4 -31 5 -32 4 -16 -8 17 -13 13
-15 -40 -29 -32 -9 -68 -19 -79 -23 -12 -4 -4 8 20 29 24 22 47 35 58 32 9 -2
15 0 11 5 -6 11 22 10 56 -2z m1070 -9 c-8 -5 -24 -9 -35 -9 l-20 0 20 9 c11
5 27 9 35 9 13 1 13 0 0 -9z m-750 -30 c0 -5 -4 -10 -9 -10 -6 0 -13 5 -16 10
-3 6 1 10 9 10 9 0 16 -4 16 -10z m-724 -31 c3 -6 0 -15 -7 -20 -11 -7 -9 -9
7 -9 19 0 134 -108 134 -125 0 -4 -10 -16 -22 -26 l-23 -20 28 17 c15 9 30 14
33 11 4 -3 -9 -15 -27 -26 -37 -23 -54 -27 -44 -11 11 18 -1 11 -21 -12 -12
-14 -13 -18 -3 -10 9 6 18 9 21 6 4 -3 24 4 47 15 50 26 55 26 48 1 -3 -13 0
-20 9 -20 17 0 18 -12 3 -27 -9 -9 -7 -10 10 -6 36 9 24 -4 -39 -43 -33 -20
-60 -39 -60 -41 0 -2 6 -1 13 2 6 4 3 -1 -7 -9 -11 -9 -28 -13 -38 -10 -22 7
-98 81 -98 95 0 6 -16 31 -35 56 -19 25 -35 56 -35 69 0 13 -6 24 -12 24 -15
1 -84 58 -77 63 12 10 156 66 171 67 9 0 20 -5 24 -11z m672 -106 c18 -20 30
-43 28 -50 -3 -7 2 -13 11 -13 13 0 14 -2 2 -17 -13 -17 -13 -17 7 -1 17 15
23 15 44 5 38 -20 82 -49 113 -74 l27 -22 -21 -12 c-15 -8 -18 -13 -10 -18 9
-6 8 -11 -3 -20 -13 -11 -27 -8 -79 17 -35 17 -89 41 -120 52 -32 12 -57 25
-57 30 0 5 -7 7 -15 4 -14 -6 -119 48 -131 67 -7 13 19 43 69 80 32 23 43 26
70 18 18 -4 47 -25 65 -46z"/>
<path d="M3490 1520 c-9 -6 -10 -10 -3 -10 6 0 15 5 18 10 8 12 4 12 -15 0z"/>
<path d="M1920 950 c-9 -6 -10 -10 -3 -10 6 0 15 5 18 10 8 12 4 12 -15 0z"/>
<path d="M2621 941 c-21 -16 -21 -19 -6 -24 23 -9 27 -9 20 3 -4 6 -1 17 5 25
16 20 10 18 -19 -4z"/>
<path d="M1528 1682 c-7 -27 -1 -52 13 -52 10 0 10 14 0 50 l-7 25 -6 -23z"/>
<path d="M1192 1670 c0 -14 2 -19 5 -12 2 6 2 18 0 25 -3 6 -5 1 -5 -13z"/>
<path d="M3843 1625 c0 -38 2 -55 4 -38 2 18 2 50 0 70 -2 21 -4 7 -4 -32z"/>
<path d="M683 1640 c0 -25 2 -35 4 -22 2 12 2 32 0 45 -2 12 -4 2 -4 -23z"/>
<path d="M712 1655 c0 -16 2 -24 5 -18 2 7 2 21 0 30 -3 10 -5 5 -5 -12z"/>
<path d="M1260 1664 c0 -8 5 -12 10 -9 6 3 10 10 10 16 0 5 -4 9 -10 9 -5 0
-10 -7 -10 -16z"/>
<path d="M1583 1625 c-1 -22 1 -32 4 -23 2 10 2 28 0 40 -2 13 -4 5 -4 -17z"/>
<path d="M932 1630 c0 -14 2 -19 5 -12 2 6 2 18 0 25 -3 6 -5 1 -5 -13z"/>
<path d="M1222 1630 c0 -14 2 -19 5 -12 2 6 2 18 0 25 -3 6 -5 1 -5 -13z"/>
<path d="M1246 1599 c-5 -30 -3 -45 6 -50 10 -6 14 2 16 33 4 57 -13 71 -22
17z m10 -36 c-3 -4 -6 2 -5 13 0 11 3 14 6 6 3 -7 2 -16 -1 -19z"/>
<path d="M601 1616 c-1 -11 2 -17 5 -13 3 3 4 12 1 19 -3 8 -6 5 -6 -6z"/>
<path d="M3032 1590 c0 -19 2 -27 5 -17 2 9 2 25 0 35 -3 9 -5 1 -5 -18z"/>
<path d="M1531 1596 c-1 -11 2 -17 5 -13 3 3 4 12 1 19 -3 8 -6 5 -6 -6z"/>
<path d="M1551 1596 c-1 -11 2 -17 5 -13 3 3 4 12 1 19 -3 8 -6 5 -6 -6z"/>
<path d="M3793 1555 c-1 -22 1 -32 4 -23 2 10 2 28 0 40 -2 13 -4 5 -4 -17z"/>
<path d="M727 1553 c-4 -3 -7 -37 -7 -75 0 -47 -3 -67 -11 -63 -6 4 -5 -2 3
-14 10 -16 10 -23 0 -33 -6 -6 -12 -23 -12 -37 0 -20 2 -23 10 -11 8 13 9 13
14 0 13 -42 15 -41 10 6 -4 34 -1 59 7 72 11 17 11 28 0 57 -7 21 -10 51 -7
71 7 34 5 40 -7 27z"/>
<path d="M1541 1538 c0 -10 -5 -18 -11 -18 -5 0 -10 -7 -10 -15 0 -8 5 -15 10
-15 14 0 23 25 17 47 -4 17 -5 17 -6 1z"/>
<path d="M3812 1525 c0 -16 2 -24 5 -18 2 7 2 21 0 30 -3 10 -5 5 -5 -12z"/>
<path d="M1572 1510 c0 -14 2 -19 5 -12 2 6 2 18 0 25 -3 6 -5 1 -5 -13z"/>
<path d="M4750 1489 c-19 -12 -80 -66 -136 -121 l-101 -100 -244 -2 c-234 -3
-349 -15 -349 -37 0 -11 3 -11 37 2 39 15 194 21 210 7 9 -7 13 -7 13 0 0 16
70 26 101 15 19 -8 31 -7 38 0 8 8 11 -1 11 -30 0 -23 5 -45 11 -49 7 -4 10 8
8 37 -3 40 11 63 25 40 4 -6 27 -8 56 -4 31 4 50 2 50 -4 0 -13 -100 -107
-106 -100 -2 2 0 15 5 29 5 15 6 30 0 39 -6 10 -9 7 -9 -13 0 -15 -7 -33 -15
-42 -8 -8 -15 -23 -15 -33 0 -10 -5 -25 -11 -33 -8 -11 -9 -4 -6 30 3 25 3 37
0 27 -2 -9 -8 -15 -12 -12 -5 2 -11 -19 -14 -47 -10 -82 -27 -83 -28 -2 -1 77
-16 56 -18 -26 -1 -33 -4 -41 -11 -30 -8 12 -10 10 -10 -10 0 -18 -10 -4 -33
46 -18 39 -40 81 -48 95 l-16 23 -5 -27 c-3 -14 -2 -24 2 -22 13 8 42 -33 38
-52 -4 -15 -7 -13 -18 9 -10 21 -16 25 -26 17 -7 -6 -19 -7 -25 -3 -7 4 -5 -4
4 -17 10 -13 23 -24 29 -24 6 0 12 -10 13 -22 1 -13 9 -31 18 -41 9 -10 17
-24 17 -30 0 -6 7 -32 16 -58 24 -70 10 -63 -25 13 -18 37 -42 76 -54 86 -12
10 -16 16 -9 12 11 -6 12 -3 3 13 -6 12 -16 24 -23 28 -7 4 -8 3 -4 -4 4 -7 2
-12 -5 -12 -10 0 -10 -3 -1 -12 17 -17 15 -29 -3 -22 -19 8 -20 -10 -1 -25 7
-6 37 -49 65 -96 47 -75 52 -89 49 -132 l-3 -48 -38 73 c-20 39 -43 72 -51 72
-18 0 -176 167 -176 185 0 8 -10 19 -21 26 -15 8 -19 8 -15 0 4 -6 -17 -2 -46
10 -64 25 -63 24 33 -39 73 -48 100 -72 82 -72 -5 0 -14 3 -19 8 -6 4 7 -9 28
-29 21 -20 38 -42 38 -48 0 -7 5 -9 11 -5 14 9 66 -42 91 -90 11 -21 30 -48
43 -60 25 -23 47 -97 34 -117 -6 -10 -13 -9 -31 6 -19 17 -20 17 -9 2 38 -49
161 -87 200 -63 10 6 12 3 7 -12 -4 -11 -2 -23 3 -27 6 -3 8 0 6 8 -5 11 6 12
55 9 33 -2 60 0 61 4 0 5 3 27 6 49 3 22 5 60 5 85 0 36 2 40 8 20 l8 -25 1
28 c1 16 8 50 17 77 11 32 13 54 6 65 -7 14 -11 8 -22 -29 -7 -25 -16 -46 -20
-46 -9 0 36 156 52 180 7 11 8 7 3 -13 -4 -19 -2 -26 5 -22 7 4 9 -3 5 -22 -3
-15 3 -3 14 27 11 30 17 58 15 62 -3 4 2 20 11 35 15 25 14 17 -2 -27 -8 -20
32 37 92 135 27 43 79 109 116 145 36 36 74 80 83 98 10 19 20 32 22 29 3 -2
-5 -23 -17 -46 -12 -23 -19 -44 -17 -47 3 -2 16 16 29 40 21 40 22 47 9 71 -8
15 -16 22 -18 16 -2 -6 -14 -8 -27 -5 -17 4 -26 0 -35 -15 -6 -12 -16 -21 -22
-21 -22 0 -101 -75 -152 -144 -100 -136 -207 -348 -225 -446 -6 -30 -18 -97
-27 -148 -9 -51 -19 -90 -22 -87 -6 6 -5 69 3 99 2 11 -2 8 -10 -9 -21 -45
-18 -9 9 96 28 106 57 182 98 251 15 27 26 54 24 60 -1 7 -1 9 2 5 2 -5 16 11
30 35 14 23 32 51 40 61 9 10 30 42 46 70 27 46 92 113 191 195 18 15 35 21
49 17 21 -6 21 -6 1 10 -11 8 -28 22 -38 30 -21 19 -24 18 -67 -6z m65 -9 c3
-5 -3 -10 -14 -10 -12 0 -21 -4 -21 -8 0 -5 -8 -13 -19 -18 -10 -5 -47 -36
-82 -68 -35 -32 -58 -56 -51 -51 11 6 12 3 3 -13 -14 -26 -42 -38 -34 -14 12
35 -19 -6 -38 -50 -13 -30 -14 -37 -4 -24 24 32 17 -1 -10 -43 -25 -41 -45
-59 -45 -42 0 5 4 13 10 16 5 3 14 15 20 25 9 17 8 18 -19 4 -30 -15 -65 -59
-57 -72 2 -4 -2 -16 -10 -27 -8 -10 -14 -14 -14 -9 0 6 3 14 8 20 4 5 -8 -6
-26 -26 -39 -40 -105 -168 -97 -188 3 -7 1 -11 -4 -8 -5 3 -12 -1 -15 -10 -9
-24 -7 -31 5 -14 8 12 9 9 4 -10 -4 -14 -8 -35 -9 -47 0 -12 -5 -21 -10 -20
-5 1 -15 -16 -23 -38 -11 -33 -12 -34 -9 -10 2 17 11 47 20 68 25 58 0 34 -34
-31 -16 -31 -29 -52 -30 -46 0 21 51 160 86 232 32 67 149 231 177 249 7 5 30
31 52 58 38 48 58 67 117 110 66 49 133 109 131 116 -4 12 34 11 42 -1z m-5
-165 c-7 -9 -15 -13 -18 -10 -3 2 1 11 8 20 7 9 15 13 18 10 3 -2 -1 -11 -8
-20z m-126 -133 c-66 -100 -66 -100 -53 -72 17 37 83 139 87 135 3 -2 -13 -31
-34 -63z m-54 -41 c-11 -23 -22 -41 -25 -41 -6 0 11 44 27 69 21 34 20 15 -2
-28z m-180 -135 c-21 -35 -30 -43 -30 -28 0 14 41 74 47 69 3 -3 -5 -22 -17
-41z m-193 -38 c-3 -7 -5 -2 -5 12 0 14 2 19 5 13 2 -7 2 -19 0 -25z m119 4
c-17 -16 -18 -16 -5 5 7 12 15 20 18 17 3 -2 -3 -12 -13 -22z m86 -262 c-2
-16 -6 -30 -8 -30 -2 0 -4 14 -4 30 0 17 4 30 8 30 5 0 7 -13 4 -30z m-36 -85
l-15 -50 6 60 c6 71 15 102 20 65 2 -14 -3 -47 -11 -75z m-192 21 c5 -42 4
-47 -9 -36 -15 12 -21 71 -8 83 9 10 9 8 17 -47z m229 -36 c-3 -12 -8 -19 -11
-16 -5 6 5 36 12 36 2 0 2 -9 -1 -20z m-67 -37 c-3 -4 -6 2 -5 13 0 11 3 14 6
6 3 -7 2 -16 -1 -19z"/>
<path d="M692 1480 c0 -14 2 -19 5 -12 2 6 2 18 0 25 -3 6 -5 1 -5 -13z"/>
<path d="M1882 1465 c0 -16 2 -24 5 -18 2 7 2 21 0 30 -3 10 -5 5 -5 -12z"/>
<path d="M3801 1466 c-1 -11 2 -17 5 -13 3 3 4 12 1 19 -3 8 -6 5 -6 -6z"/>
<path d="M613 1405 c0 -33 2 -48 4 -33 2 15 2 42 0 60 -2 18 -4 6 -4 -27z"/>
<path d="M3783 1420 c0 -25 2 -35 4 -22 2 12 2 32 0 45 -2 12 -4 2 -4 -23z"/>
<path d="M1533 1444 c3 -3 12 -4 19 -1 8 3 5 6 -6 6 -11 1 -17 -2 -13 -5z"/>
<path d="M1880 1405 c0 -5 5 -17 10 -25 5 -8 10 -10 10 -5 0 6 -5 17 -10 25
-5 8 -10 11 -10 5z"/>
<path d="M1168 1363 c6 -2 18 -2 25 0 6 3 1 5 -13 5 -14 0 -19 -2 -12 -5z"/>
<path d="M1892 1335 c0 -16 2 -24 5 -18 2 7 2 21 0 30 -3 10 -5 5 -5 -12z"/>
<path d="M641 1316 c-1 -11 2 -17 5 -13 3 3 4 12 1 19 -3 8 -6 5 -6 -6z"/>
<path d="M672 1280 c0 -14 2 -19 5 -12 2 6 2 18 0 25 -3 6 -5 1 -5 -13z"/>
<path d="M932 1280 c0 -14 2 -19 5 -12 2 6 2 18 0 25 -3 6 -5 1 -5 -13z"/>
<path d="M761 1256 c-1 -11 2 -17 5 -13 3 3 4 12 1 19 -3 8 -6 5 -6 -6z"/>
<path d="M651 1247 c-1 -11 -6 -15 -12 -11 -14 8 -4 -26 23 -79 11 -22 17 -45
14 -53 -3 -8 0 -13 7 -11 7 1 12 -7 13 -18 1 -19 41 -95 51 -95 2 0 3 3 1 8
-16 33 -29 64 -44 107 -10 28 -25 57 -32 65 -10 10 -11 15 -3 18 6 2 8 9 4 14
-3 6 -10 25 -14 42 -4 17 -7 23 -8 13z"/>
<path d="M1185 1251 c-6 -11 13 -26 22 -17 4 3 0 6 -8 6 -11 0 -11 2 1 10 9 6
10 10 3 10 -6 0 -14 -4 -18 -9z"/>
<path d="M702 1230 c0 -14 2 -19 5 -12 2 6 2 18 0 25 -3 6 -5 1 -5 -13z"/>
<path d="M3681 1236 c-1 -11 2 -17 5 -13 3 3 4 12 1 19 -3 8 -6 5 -6 -6z"/>
<path d="M1265 1220 c-16 -7 -17 -9 -3 -9 9 -1 20 4 23 9 7 11 7 11 -20 0z"/>
<path d="M811 1206 c-1 -11 2 -17 5 -13 3 3 4 12 1 19 -3 8 -6 5 -6 -6z"/>
<path d="M923 1175 c0 -27 2 -38 4 -22 2 15 2 37 0 50 -2 12 -4 0 -4 -28z"/>
<path d="M1330 1206 c0 -2 7 -6 15 -10 8 -3 15 -1 15 4 0 6 -7 10 -15 10 -8 0
-15 -2 -15 -4z"/>
<path d="M941 1186 c-1 -11 2 -17 5 -13 3 3 4 12 1 19 -3 8 -6 5 -6 -6z"/>
<path d="M3541 1186 c-1 -11 2 -17 5 -13 3 3 4 12 1 19 -3 8 -6 5 -6 -6z"/>
<path d="M3990 1196 c0 -3 9 -10 20 -16 11 -6 20 -8 20 -6 0 3 -9 10 -20 16
-11 6 -20 8 -20 6z"/>
<path d="M4695 1143 c-55 -75 -132 -239 -155 -333 -12 -47 -25 -99 -31 -116
-10 -33 -2 -121 12 -130 5 -3 9 5 9 17 0 18 2 19 15 9 13 -11 14 -10 9 5 -6
15 -3 17 15 12 15 -4 40 5 74 25 29 17 74 39 100 48 38 13 44 18 28 23 -14 3
-18 10 -14 26 3 12 2 21 -1 21 -21 0 -96 -49 -134 -86 -48 -48 -52 -51 -52
-31 0 8 11 19 24 27 14 7 22 18 19 26 -3 7 12 22 36 36 24 14 41 30 41 41 0
17 -2 17 -37 -3 l-38 -22 30 26 c17 14 26 26 20 26 -5 0 -3 4 5 10 8 5 11 12
7 16 -4 4 -15 0 -24 -8 -24 -21 -84 -51 -90 -45 -9 10 28 132 43 140 8 4 12
12 9 17 -7 11 41 118 79 178 28 44 49 92 41 92 -3 0 -21 -21 -40 -47z m-112
-407 c-10 -13 -20 -20 -21 -15 -5 12 17 39 30 39 5 0 1 -11 -9 -24z m128 -47
c-18 -11 -35 -18 -38 -15 -5 5 46 35 62 36 6 0 -5 -9 -24 -21z"/>
<path d="M4020 1135 c24 -25 46 -45 49 -45 3 0 -15 20 -39 45 -24 25 -46 45
-49 45 -3 0 15 -20 39 -45z"/>
<path d="M3890 1169 c0 -3 14 -18 30 -34 17 -16 30 -26 30 -24 0 3 -13 18 -30
34 -16 16 -30 26 -30 24z"/>
<path d="M716 1141 c-4 -7 -5 -15 -2 -18 9 -9 19 4 14 18 -4 11 -6 11 -12 0z"/>
<path d="M951 1136 c-1 -11 2 -17 5 -13 3 3 4 12 1 19 -3 8 -6 5 -6 -6z"/>
<path d="M1514 1025 c0 -66 1 -92 3 -57 2 34 2 88 0 120 -2 31 -3 3 -3 -63z"/>
<path d="M1481 1085 c-1 -30 -4 -36 -11 -25 -5 8 -10 11 -10 5 0 -5 4 -17 9
-24 8 -12 11 -9 16 11 4 14 5 37 2 49 -3 15 -5 9 -6 -16z"/>
<path d="M3707 1113 c7 -2 21 -2 30 0 10 3 5 5 -12 5 -16 0 -24 -2 -18 -5z"/>
<path d="M1192 1085 c0 -16 2 -24 5 -18 2 7 2 21 0 30 -3 10 -5 5 -5 -12z"/>
<path d="M901 1086 c-1 -11 2 -17 5 -13 3 3 4 12 1 19 -3 8 -6 5 -6 -6z"/>
<path d="M4222 1070 c0 -14 2 -19 5 -12 2 6 2 18 0 25 -3 6 -5 1 -5 -13z"/>
<path d="M1222 1050 c0 -14 2 -19 5 -12 2 6 2 18 0 25 -3 6 -5 1 -5 -13z"/>
<path d="M950 1041 c4 -9 13 -41 20 -71 19 -90 21 -95 30 -79 4 8 10 25 14 39
5 21 4 21 -10 -5 l-15 -30 6 30 c4 17 8 41 11 55 4 24 4 24 -5 3 -15 -34 -21
-28 -10 9 11 40 11 40 0 34 -5 -3 -11 2 -13 12 -3 10 -12 19 -21 19 -10 0 -13
-5 -7 -16z m26 -58 c-3 -4 -6 2 -5 13 0 11 3 14 6 6 3 -7 2 -16 -1 -19z"/>
<path d="M911 1036 c-1 -11 2 -17 5 -13 3 3 4 12 1 19 -3 8 -6 5 -6 -6z"/>
<path d="M1167 1043 c-11 -10 -8 -25 2 -18 6 3 14 -3 20 -12 6 -10 10 -13 10
-8 0 16 -25 45 -32 38z"/>
<path d="M3421 1036 c-1 -11 2 -17 5 -13 3 3 4 12 1 19 -3 8 -6 5 -6 -6z"/>
<path d="M3827 1039 c7 -7 15 -10 18 -7 3 3 -2 9 -12 12 -14 6 -15 5 -6 -5z"/>
<path d="M1044 1006 c10 -42 26 -79 32 -74 10 11 -9 87 -23 92 -12 5 -14 1 -9
-18z"/>
<path d="M766 997 c3 -10 9 -15 12 -12 3 3 0 11 -7 18 -10 9 -11 8 -5 -6z"/>
<path d="M1242 985 c0 -16 2 -24 5 -18 2 7 2 21 0 30 -3 10 -5 5 -5 -12z"/>
<path d="M920 981 c0 -11 5 -23 10 -26 6 -3 10 3 10 14 0 11 -4 23 -10 26 -5
3 -10 -3 -10 -14z"/>
<path d="M1172 980 c0 -14 2 -19 5 -12 2 6 2 18 0 25 -3 6 -5 1 -5 -13z"/>
<path d="M1221 992 c0 -7 -5 -10 -11 -7 -15 9 -12 -11 3 -27 8 -7 18 -31 22
-53 9 -38 9 -39 13 -11 2 16 -1 39 -7 50 -5 12 -12 30 -14 41 -3 11 -5 14 -6
7z"/>
<path d="M3538 983 c6 -2 18 -2 25 0 6 3 1 5 -13 5 -14 0 -19 -2 -12 -5z"/>
<path d="M3600 977 c3 -3 36 -10 73 -15 38 -6 81 -19 95 -29 49 -33 80 -43 86
-28 8 21 -102 63 -186 71 -40 3 -71 4 -68 1z"/>
<path d="M2173 935 c-1 -22 1 -32 4 -23 2 10 2 28 0 40 -2 13 -4 5 -4 -17z"/>
<path d="M3115 894 c-11 -26 -12 -40 -4 -53 10 -14 10 -14 6 0 -3 9 -2 20 2
25 10 11 23 64 16 64 -2 0 -12 -16 -20 -36z"/>
<path d="M800 901 c0 -6 4 -13 10 -16 6 -3 7 1 4 9 -7 18 -14 21 -14 7z"/>
<path d="M1017 903 c-8 -13 2 -43 14 -43 10 0 10 8 0 34 -5 12 -10 16 -14 9z"/>
<path d="M3267 868 c-22 -54 -16 -60 8 -8 10 22 16 42 13 45 -3 3 -12 -14 -21
-37z"/>
<path d="M4521 896 c-1 -11 2 -17 5 -13 3 3 4 12 1 19 -3 8 -6 5 -6 -6z"/>
<path d="M2932 880 c0 -14 2 -19 5 -12 2 6 2 18 0 25 -3 6 -5 1 -5 -13z"/>
<path d="M3166 885 c-3 -9 -6 -22 -5 -28 0 -7 5 -1 10 12 5 13 8 26 5 28 -2 2
-6 -3 -10 -12z"/>
<path d="M2861 866 c-1 -11 2 -17 5 -13 3 3 4 12 1 19 -3 8 -6 5 -6 -6z"/>
<path d="M1461 856 c-1 -11 2 -17 5 -13 3 3 4 12 1 19 -3 8 -6 5 -6 -6z"/>
<path d="M1521 846 c-1 -11 2 -17 5 -13 3 3 4 12 1 19 -3 8 -6 5 -6 -6z"/>
<path d="M3970 845 c7 -8 15 -15 17 -15 3 0 0 7 -7 15 -7 8 -15 15 -17 15 -3
0 0 -7 7 -15z"/>
<path d="M1251 836 c-1 -11 2 -17 5 -13 3 3 4 12 1 19 -3 8 -6 5 -6 -6z"/>
<path d="M1271 836 c-1 -11 2 -17 5 -13 3 3 4 12 1 19 -3 8 -6 5 -6 -6z"/>
<path d="M2402 825 c0 -16 2 -24 5 -18 2 7 2 21 0 30 -3 10 -5 5 -5 -12z"/>
<path d="M3490 820 c-13 -8 -12 -10 3 -10 9 0 17 5 17 10 0 12 -1 12 -20 0z"/>
<path d="M3996 814 c-6 -16 2 -18 22 -5 11 7 11 9 -1 14 -9 3 -18 -1 -21 -9z"/>
<path d="M3868 808 c5 -5 16 -8 23 -6 8 3 3 7 -10 11 -17 4 -21 3 -13 -5z"/>
<path d="M4755 810 c-3 -5 -1 -10 4 -10 6 0 11 5 11 10 0 6 -2 10 -4 10 -3 0
-8 -4 -11 -10z"/>
<path d="M1261 796 c-1 -11 2 -17 5 -13 3 3 4 12 1 19 -3 8 -6 5 -6 -6z"/>
<path d="M1752 790 c0 -14 2 -19 5 -12 2 6 2 18 0 25 -3 6 -5 1 -5 -13z"/>
<path d="M2842 745 c-7 -32 -11 -72 -11 -89 1 -17 8 5 15 49 16 94 13 125 -4
40z"/>
<path d="M1511 776 c-1 -11 2 -17 5 -13 3 3 4 12 1 19 -3 8 -6 5 -6 -6z"/>
<path d="M3202 765 c-15 -32 -15 -46 -2 -25 13 19 2 -67 -12 -93 -5 -10 -7
-21 -4 -24 5 -5 56 89 56 104 0 4 -7 -2 -15 -13 -17 -23 -19 -15 -5 21 6 15 6
33 2 41 -7 12 -11 10 -20 -11z"/>
<path d="M990 764 c1 -5 12 -29 25 -54 17 -31 24 -39 25 -24 0 11 -11 35 -25
54 -14 19 -25 30 -25 24z"/>
<path d="M1271 756 c-1 -11 2 -17 5 -13 3 3 4 12 1 19 -3 8 -6 5 -6 -6z"/>
<path d="M3117 757 c-3 -8 1 -14 8 -14 7 0 11 6 8 14 -3 7 -6 13 -8 13 -2 0
-5 -6 -8 -13z"/>
<path d="M1230 753 c0 -14 41 -116 52 -128 5 -5 -3 22 -17 60 -27 71 -35 87
-35 68z"/>
<path d="M3873 744 c3 -3 12 -4 19 -1 8 3 5 6 -6 6 -11 1 -17 -2 -13 -5z"/>
<path d="M4085 740 c3 -5 10 -10 16 -10 5 0 9 5 9 10 0 6 -7 10 -16 10 -8 0
-12 -4 -9 -10z"/>
<path d="M4890 738 c-25 -5 -49 -14 -55 -20 -7 -7 -2 -9 15 -4 14 4 51 10 83
13 31 3 57 10 57 14 0 11 -41 10 -100 -3z"/>
<path d="M1281 716 c-1 -11 2 -17 5 -13 3 3 4 12 1 19 -3 8 -6 5 -6 -6z"/>
<path d="M2681 716 c-1 -11 2 -17 5 -13 3 3 4 12 1 19 -3 8 -6 5 -6 -6z"/>
<path d="M3975 720 c15 -7 -4 -9 -70 -6 l-90 5 62 -19 c106 -31 119 -33 137
-14 15 14 21 15 44 3 47 -23 48 -22 13 10 -36 33 -47 39 -35 19 5 -7 1 -9 -12
-5 -10 3 -30 8 -44 12 -22 5 -23 4 -5 -5z"/>
<path d="M3176 705 c-9 -26 -7 -32 5 -12 6 10 9 21 6 23 -2 3 -7 -2 -11 -11z"/>
<path d="M2782 635 c-17 -41 -28 -75 -24 -75 8 0 63 142 58 147 -2 2 -17 -30
-34 -72z"/>
<path d="M2881 696 c-1 -11 2 -17 5 -13 3 3 4 12 1 19 -3 8 -6 5 -6 -6z"/>
<path d="M1930 686 c0 -18 6 -21 15 -7 3 5 1 12 -5 16 -5 3 -10 -1 -10 -9z"/>
<path d="M1360 685 c0 -5 5 -17 10 -25 5 -8 10 -10 10 -5 0 6 -5 17 -10 25 -5
8 -10 11 -10 5z"/>
<path d="M1782 660 c0 -14 2 -19 5 -12 2 6 2 18 0 25 -3 6 -5 1 -5 -13z"/>
<path d="M2731 666 c-1 -11 2 -17 5 -13 3 3 4 12 1 19 -3 8 -6 5 -6 -6z"/>
<path d="M3003 640 c0 -14 -3 -34 -7 -45 -4 -11 0 -8 9 8 11 19 13 33 6 44 -8
14 -9 13 -8 -7z"/>
<path d="M2632 630 c0 -14 2 -19 5 -12 2 6 2 18 0 25 -3 6 -5 1 -5 -13z"/>
<path d="M2904 633 c2 -12 -1 -24 -6 -25 -6 -2 -9 -12 -7 -23 4 -17 5 -16 15
6 7 15 8 32 2 44 -8 19 -8 18 -4 -2z"/>
<path d="M4083 644 c3 -3 12 -4 19 -1 8 3 5 6 -6 6 -11 1 -17 -2 -13 -5z"/>
<path d="M1838 603 c-3 -21 -1 -47 3 -58 5 -13 8 -1 8 38 1 65 -5 75 -11 20z"/>
<path d="M3620 634 c-9 -3 -22 -15 -29 -27 -13 -21 -13 -21 5 -6 10 9 28 21
39 27 20 11 14 13 -15 6z"/>
<path d="M1790 625 c0 -5 5 -17 10 -25 5 -8 10 -10 10 -5 0 6 -5 17 -10 25 -5
8 -10 11 -10 5z"/>
<path d="M2241 608 c-1 -16 4 -28 9 -28 12 0 12 8 0 35 -8 18 -9 17 -9 -7z"/>
<path d="M1420 615 c0 -5 10 -21 21 -35 13 -17 17 -18 10 -5 -17 33 -31 51
-31 40z"/>
<path d="M3715 595 c-17 -7 -48 -30 -70 -51 -23 -22 -29 -32 -15 -23 14 9 51
31 83 49 31 17 57 34 57 36 0 7 -25 3 -55 -11z"/>
<path d="M1983 545 c0 -27 2 -38 4 -22 2 15 2 37 0 50 -2 12 -4 0 -4 -28z"/>
<path d="M4620 575 c-10 -13 -9 -15 8 -15 15 0 20 5 16 15 -4 8 -7 15 -9 15
-1 0 -8 -7 -15 -15z"/>
<path d="M1731 566 c-1 -11 2 -17 5 -13 3 3 4 12 1 19 -3 8 -6 5 -6 -6z"/>
<path d="M2281 566 c-1 -11 2 -17 5 -13 3 3 4 12 1 19 -3 8 -6 5 -6 -6z"/>
<path d="M3080 560 c-6 -11 -8 -20 -6 -20 3 0 10 9 16 20 6 11 8 20 6 20 -3 0
-10 -9 -16 -20z"/>
<path d="M2032 550 c0 -14 2 -19 5 -12 2 6 2 18 0 25 -3 6 -5 1 -5 -13z"/>
<path d="M2412 540 c0 -19 2 -27 5 -17 2 9 2 25 0 35 -3 9 -5 1 -5 -18z"/>
<path d="M3026 555 c-3 -8 0 -17 6 -21 6 -4 8 -3 4 4 -3 5 -1 12 6 14 8 3 9 6
1 11 -6 4 -13 0 -17 -8z"/>
<path d="M4792 565 c3 -3 33 -16 68 -30 44 -17 67 -22 79 -15 14 8 14 9 -2 10
-11 0 -15 4 -11 11 5 8 0 10 -17 6 -13 -3 -42 1 -64 9 -41 14 -62 18 -53 9z"/>
<path d="M1932 535 c0 -16 2 -24 5 -18 2 7 2 21 0 30 -3 10 -5 5 -5 -12z"/>
<path d="M2102 535 c0 -16 2 -24 5 -18 2 7 2 21 0 30 -3 10 -5 5 -5 -12z"/>
<path d="M2317 533 c-4 -3 -7 -16 -6 -27 0 -19 1 -19 10 3 10 24 8 36 -4 24z"/>
<path d="M3049 513 c-13 -16 -12 -17 4 -4 9 7 17 15 17 17 0 8 -8 3 -21 -13z"/>
<path d="M4500 524 c0 -10 142 -145 147 -140 6 5 -106 125 -128 137 -11 5 -19
7 -19 3z"/>
<path d="M3690 510 c-8 -5 -10 -10 -5 -10 6 0 17 5 25 10 8 5 11 10 5 10 -5 0
-17 -5 -25 -10z"/>
<path d="M4660 505 c7 -8 15 -15 17 -15 3 0 0 7 -7 15 -7 8 -15 15 -17 15 -3
0 0 -7 7 -15z"/>
<path d="M4963 514 c3 -3 12 -4 19 -1 8 3 5 6 -6 6 -11 1 -17 -2 -13 -5z"/>
<path d="M1670 506 c0 -17 63 -136 73 -136 6 0 19 -7 29 -17 10 -9 18 -11 18
-5 0 6 -12 20 -27 32 -14 11 -31 29 -37 39 -6 10 -21 36 -33 57 -12 22 -22 35
-23 30z"/>
<path d="M2132 480 c0 -19 2 -27 5 -17 2 9 2 25 0 35 -3 9 -5 1 -5 -18z"/>
<path d="M3779 493 c-13 -16 -12 -17 4 -4 9 7 17 15 17 17 0 8 -8 3 -21 -13z"/>
<path d="M2427 483 c-2 -4 -7 -25 -11 -46 -4 -21 -10 -46 -13 -55 -4 -11 -3
-14 4 -7 13 13 38 104 30 111 -3 3 -7 2 -10 -3z"/>
<path d="M1981 466 c-1 -11 2 -17 5 -13 3 3 4 12 1 19 -3 8 -6 5 -6 -6z"/>
<path d="M2641 430 c-12 -27 -21 -51 -21 -54 0 -12 28 7 34 22 3 9 12 26 20
37 12 17 12 22 1 32 -10 10 -17 2 -34 -37z"/>
<path d="M4341 466 c-1 -11 2 -17 5 -13 3 3 4 12 1 19 -3 8 -6 5 -6 -6z"/>
<path d="M4590 477 c0 -3 21 -22 48 -43 45 -36 46 -36 17 -5 -28 30 -65 57
-65 48z"/>
<path d="M2220 435 c-1 -31 -3 -35 -9 -20 l-8 20 -6 -20 c-14 -54 -17 -75 -7
-75 5 0 10 7 10 16 0 14 3 14 15 4 13 -11 15 -8 15 19 0 17 5 31 11 31 8 0 8
4 1 13 -5 6 -12 21 -15 32 -3 11 -5 3 -7 -20z"/>
<path d="M4820 466 c0 -3 9 -10 20 -16 11 -6 20 -8 20 -6 0 3 -9 10 -20 16
-11 6 -20 8 -20 6z"/>
<path d="M4670 459 c0 -3 14 -18 30 -34 17 -16 30 -26 30 -24 0 3 -13 18 -30
34 -16 16 -30 26 -30 24z"/>
<path d="M4059 433 c-13 -16 -12 -17 4 -4 9 7 17 15 17 17 0 8 -8 3 -21 -13z"/>
<path d="M1950 420 c0 -5 2 -10 4 -10 3 0 8 5 11 10 3 6 1 10 -4 10 -6 0 -11
-4 -11 -10z"/>
<path d="M2809 403 c-13 -16 -12 -17 4 -4 9 7 17 15 17 17 0 8 -8 3 -21 -13z"/>
<path d="M4119 403 c-13 -16 -12 -17 4 -4 9 7 17 15 17 17 0 8 -8 3 -21 -13z"/>
<path d="M2441 396 c-1 -11 2 -17 5 -13 3 3 4 12 1 19 -3 8 -6 5 -6 -6z"/>
<path d="M5035 297 l99 -97 21 22 20 22 -22 -18 c-22 -18 -23 -18 -49 13 -47
56 -58 67 -114 111 -38 30 -24 13 45 -53z"/>
<path d="M2431 356 c-1 -11 2 -17 5 -13 3 3 4 12 1 19 -3 8 -6 5 -6 -6z"/>
<path d="M4660 355 c7 -8 15 -15 17 -15 3 0 0 7 -7 15 -7 8 -15 15 -17 15 -3
0 0 -7 7 -15z"/>
<path d="M3790 348 c0 -4 4 -8 9 -8 6 0 12 4 15 8 3 5 -1 9 -9 9 -8 0 -15 -4
-15 -9z"/>
<path d="M4352 335 c0 -16 2 -24 5 -18 2 7 2 21 0 30 -3 10 -5 5 -5 -12z"/>
<path d="M5210 345 c7 -8 15 -15 17 -15 3 0 0 7 -7 15 -7 8 -15 15 -17 15 -3
0 0 -7 7 -15z"/>
<path d="M4501 326 c-1 -11 2 -17 5 -13 3 3 4 12 1 19 -3 8 -6 5 -6 -6z"/>
<path d="M4461 306 c-1 -11 2 -17 5 -13 3 3 4 12 1 19 -3 8 -6 5 -6 -6z"/>
<path d="M4915 300 c10 -11 20 -20 23 -20 3 0 -3 9 -13 20 -10 11 -20 20 -23
20 -3 0 3 -9 13 -20z"/>
<path d="M3909 293 c0 -5 -2 -16 -4 -26 -2 -12 5 -19 23 -22 15 -3 46 -12 70
-20 23 -8 40 -10 37 -4 -4 5 -2 16 5 24 7 8 7 15 1 19 -5 4 -12 -3 -16 -14 -6
-20 -16 -25 -28 -13 -4 3 0 14 9 24 9 10 14 24 11 31 -3 8 -9 2 -17 -14 -13
-27 -40 -39 -40 -17 0 5 -4 8 -9 5 -15 -10 -40 5 -34 20 3 8 2 14 -1 14 -3 0
-6 -3 -7 -7z"/>
<path d="M4471 245 c1 -19 18 -51 18 -35 0 8 -4 22 -9 30 -5 8 -9 11 -9 5z"/>
<path d="M4975 230 c10 -11 20 -20 23 -20 3 0 -3 9 -13 20 -10 11 -20 20 -23
20 -3 0 3 -9 13 -20z"/>
<path d="M4061 224 c-1 -12 6 -25 15 -28 13 -5 14 -3 7 6 -6 7 -13 20 -16 28
-4 10 -6 8 -6 -6z"/>
<path d="M5033 223 c19 -22 8 -41 -15 -27 -10 6 -10 5 -1 -8 7 -8 10 -18 6
-21 -3 -4 12 1 35 11 27 11 36 18 24 20 -9 2 -28 14 -42 25 l-25 22 18 -22z"/>
<path d="M4795 215 c4 -11 12 -33 17 -48 14 -39 4 -44 -26 -12 -27 29 -33 27
-16 -5 20 -38 5 -47 -83 -44 l-82 2 80 -7 c70 -6 85 -5 118 13 20 11 37 22 37
25 -1 3 -12 26 -26 51 -14 25 -22 36 -19 25z"/>
<path d="M4100 185 c0 -2 10 -10 23 -16 20 -11 21 -11 8 4 -13 16 -31 23 -31
12z"/>
<path d="M4292 163 c-2 -28 -6 -33 -26 -33 -14 0 -37 5 -52 10 -15 6 -29 8
-32 6 -3 -3 6 -9 19 -14 33 -13 127 -25 112 -15 -6 5 -13 24 -16 43 l-4 35 -1
-32z"/>
<path d="M4332 150 c0 -14 2 -19 5 -12 2 6 2 18 0 25 -3 6 -5 1 -5 -13z"/>
<path d="M4382 140 c0 -14 2 -19 5 -12 2 6 2 18 0 25 -3 6 -5 1 -5 -13z"/>
<path d="M4880 151 c0 -5 -8 -11 -17 -13 -11 -3 -5 -6 14 -9 28 -5 31 -3 22
13 -11 20 -19 23 -19 9z"/>
<path d="M4340 100 c8 -5 20 -10 25 -10 6 0 3 5 -5 10 -8 5 -19 10 -25 10 -5
0 -3 -5 5 -10z"/>
<path d="M4410 100 c0 -5 7 -7 15 -4 8 4 15 8 15 10 0 2 -7 4 -15 4 -8 0 -15
-4 -15 -10z"/>
<path d="M4523 93 c15 -2 39 -2 55 0 15 2 2 4 -28 4 -30 0 -43 -2 -27 -4z"/>
</g>
</svg>
